<mxfile host="Electron" modified="2024-08-01T08:48:38.809Z" agent="Mozilla/5.0 (Windows NT 10.0; Win64; x64) AppleWebKit/537.36 (KHTML, like Gecko) draw.io/24.5.1 Chrome/124.0.6367.207 Electron/30.0.6 Safari/537.36" etag="-FCfHb-AmVD_YdARe7-b" version="24.5.1" type="device">
  <diagram name="第 1 页" id="4W-yy3hXio1PYK0izE2a">
    <mxGraphModel dx="807" dy="821" grid="1" gridSize="10" guides="1" tooltips="1" connect="1" arrows="1" fold="1" page="1" pageScale="1" pageWidth="827" pageHeight="1169" math="0" shadow="0">
      <root>
        <mxCell id="0" />
        <mxCell id="1" parent="0" />
        <mxCell id="DF1sutE61C37PgX-AiIt-1" value="个人博客 项目部署Ubuntu遇到的问题" style="ellipse;whiteSpace=wrap;html=1;" parent="1" vertex="1">
          <mxGeometry x="40" y="30" width="140" height="70" as="geometry" />
        </mxCell>
        <mxCell id="Z-S8mM7DxkfgQYMTvlX1-3" value="" style="edgeStyle=orthogonalEdgeStyle;rounded=0;orthogonalLoop=1;jettySize=auto;html=1;" edge="1" parent="1" source="Z-S8mM7DxkfgQYMTvlX1-1" target="Z-S8mM7DxkfgQYMTvlX1-2">
          <mxGeometry relative="1" as="geometry" />
        </mxCell>
        <mxCell id="Z-S8mM7DxkfgQYMTvlX1-1" value="安装mysql时候遇到问题：&amp;nbsp;" style="rounded=0;whiteSpace=wrap;html=1;" vertex="1" parent="1">
          <mxGeometry x="220" y="130" width="220" height="60" as="geometry" />
        </mxCell>
        <mxCell id="Z-S8mM7DxkfgQYMTvlX1-5" value="" style="edgeStyle=orthogonalEdgeStyle;rounded=0;orthogonalLoop=1;jettySize=auto;html=1;" edge="1" parent="1" source="Z-S8mM7DxkfgQYMTvlX1-2" target="Z-S8mM7DxkfgQYMTvlX1-4">
          <mxGeometry relative="1" as="geometry" />
        </mxCell>
        <mxCell id="Z-S8mM7DxkfgQYMTvlX1-2" value="首先要查看日志：&lt;span style=&quot;color: rgb(171, 178, 191); font-family: ui-monospace, SFMono-Regular, &amp;quot;SF Mono&amp;quot;, Menlo, Consolas, &amp;quot;Liberation Mono&amp;quot;, monospace; font-size: 16px; text-align: start; white-space-collapse: preserve; background-color: rgb(40, 44, 52);&quot;&gt;sudo &lt;/span&gt;&lt;span style=&quot;box-sizing: border-box; font-family: ui-monospace, SFMono-Regular, &amp;quot;SF Mono&amp;quot;, Menlo, Consolas, &amp;quot;Liberation Mono&amp;quot;, monospace; color: rgb(230, 192, 123); font-size: 16px; text-align: start; white-space-collapse: preserve;&quot; class=&quot;hljs-built_in&quot;&gt;tail&lt;/span&gt;&lt;span style=&quot;color: rgb(171, 178, 191); font-family: ui-monospace, SFMono-Regular, &amp;quot;SF Mono&amp;quot;, Menlo, Consolas, &amp;quot;Liberation Mono&amp;quot;, monospace; font-size: 16px; text-align: start; white-space-collapse: preserve; background-color: rgb(40, 44, 52);&quot;&gt; -n 50 /var/log/mysql/error.log&lt;/span&gt;&amp;nbsp;" style="rounded=0;whiteSpace=wrap;html=1;" vertex="1" parent="1">
          <mxGeometry x="150" y="270" width="360" height="70" as="geometry" />
        </mxCell>
        <mxCell id="Z-S8mM7DxkfgQYMTvlX1-8" value="" style="edgeStyle=orthogonalEdgeStyle;rounded=0;orthogonalLoop=1;jettySize=auto;html=1;" edge="1" parent="1" source="Z-S8mM7DxkfgQYMTvlX1-4" target="Z-S8mM7DxkfgQYMTvlX1-7">
          <mxGeometry relative="1" as="geometry" />
        </mxCell>
        <mxCell id="Z-S8mM7DxkfgQYMTvlX1-4" value="&lt;span style=&quot;color: rgb(171, 178, 191); font-family: ui-monospace, SFMono-Regular, &amp;quot;SF Mono&amp;quot;, Menlo, Consolas, &amp;quot;Liberation Mono&amp;quot;, monospace; font-size: 16px; text-align: start; white-space-collapse: preserve; background-color: rgb(40, 44, 52);&quot;&gt;sudo lsof -i :3306&lt;/span&gt;" style="rounded=0;whiteSpace=wrap;html=1;" vertex="1" parent="1">
          <mxGeometry x="220" y="410" width="220" height="60" as="geometry" />
        </mxCell>
        <mxCell id="Z-S8mM7DxkfgQYMTvlX1-6" value="" style="shape=image;verticalLabelPosition=bottom;labelBackgroundColor=default;verticalAlign=top;aspect=fixed;imageAspect=0;image=data:image/png,iVBORw0KGgoAAAANSUhEUgAAAzYAAAICCAYAAAAd01hOAAAgAElEQVR4Aey92+9l1XXvWUleEilck4CP4nM6Shz8w/zOSVqpjlodGxzCg2WIsEiEK0LiwSqBY4hEAwrdzaVVbuEkLVQ6DSrRIpYoWlRiCZGcqhTKzQiEY4gjoZzKDdkPsfKC8uB/wE+zPcecY84xxhxzrrX23r/L/v2+SMXae615GZfPnHOMNdfavxPX/8RPBv3vJ8J11+d/110frqV/14VrruV/14arr+F/14Srr74mXKX+XR2uulr8u+rqcBX+wQZgAAyAATAABsAAGAADYAAMrMuAzDPoc81FTsxPajiZuTbccMON4aaP74RfOvk/hU9+6tbw6V+9Pfzq7b+Gf7ABGAADYAAMgAEwAAbAABgAA/vOQMxHVGLT7NTwLk3eobnhxhvDL/zi/xg+dett4Zb//Ivho//Dx8JP3PDRcPX1HwlXXXcj/sEGYAAMgAEwAAbAABgAA2AADOw7AzEfKYlNSWquN4+f5aTmZ3/uY7Qzc9POLhIZwLrvsCJxxo0DMAAGwAAYAANgAAyAgREDObGp79Wod2pyUhMfO/uf/5dfCTf+9M8goEVSAwbAABgAA2AADIABMAAGwMChY4ASm7Jbk38sIP1QQHqnJu7UxKQmPnI2ypBwDRk0GAADYAAMgAEwAAbAABgAAwfFgEps5G5N/OWz+E5NfBEHOzUA9KAARb9gDwyAATAABsAAGAADYGAOAyf+8q/+Ov+8c3q3Ru7WxB8KiO/UzGkIZQAcGAADYAAMgAEwAAbAABgAAwfFwIl///d/D+df+f/U36uh3ZobbqRfP8MvngHOg4IT/YI9MAAGwAAYAANgAAyAgbkMnPibv/mb8G//9m/hf330sXAt/bxzercm/mBA/EnnuQ2hHKADA2AADIABMAAGwAAYAANg4KAYOPHwww+HDz74IPz3/34lfHzn5nAN/RLaNfTHN+PfqTkowdAvBgUYAANgAAyAATAABsAAGAADcxk48dGPfjR8/etfD//yL/8S/ut//X9CfAzt6quvCZ/81K34JTT8jB8SWzAABsAAGAADYAAMgAEwsBUMnPihH/qh8Hu/93vhn/7pn8Lf/d3fhfiDAVddfQ39Gtoq79c8/vq3w5sv3tcof/eL74dvvX6mOd9kYJ9/Jbx55f3w/OdzdvrU5fAt+b0L1n3h+Xf8vps+um3cGK5S/Z8JF658O1x4SmTKJM/l8LjXhqor6lx3YyD933kl3O3VO2LnIgOtr5N/qi3td22vRT7bD/uRbzt+n9P/uvVFH2TfK98O3+J/x4SrA2OCfGfmAeGPuXL15sa59alcnH825O/Zc/KUrhtke5EtjFwbsa9oM7ZX56t2ftqY/USf8/WPa5NYJ2e2QTJfmT+P0VzjrtvO2mhliKy6dVtbztd7y+rS2HD8NHMcr2P/Xsxhx4n9vllf+Ov8SmNnFHtZ9vL3vdVty1js2Giz/j4cNjlx4sSJcPfdd4d//Md/DH/7t38bnn7m/6TE5ldv/7XpJMQxVA+kuSDbwdhrr3VGm9hQWxz8OUdv0Yr91cnYmbwHg6uvoz+4Wx0OBxTrydXT1Z6337PuzWKYypUg3vFj9VduIweiwzrcztwgcd3gbW594kskLSynOHrcruezo8Cd0cFhINpt+ZyQ+ZvLiTMnkm9IHifA6ZXvnk/yeDePNANp7mrHQA1q+/PVjYHmQcEctdOzgcd2PKfK9+QRrIvybv9KntaWcq2Yri/6Fe3qsRVllv3o79p++lr0xWIZjP5aFsP3dW1/2v+2PH+P9eQax+e946CPOE8Jeb2+7/78GbrZyOWmxl5krOjsjN94/c0Xc5vCZ5rxyrcn06JzHRl0f8yR3y/p7Nlphv2uGvl4Rn05HqTe9rz9TmWb8TuD556ebiKdOCz+9ua7RfYX7JS2OjFGue4xH8/lMdJljH3uHeV80Wsf5yWPe/GZdmx+4Rd+IfzDP/xDeO+998Kf/ul/O8DExizaM8CuC7ypy7sk7h2jDvDUnwTTGXwUeJpJrCcnD/TedbFo8qRf9fHgzwOO250coKkNbrtOyFJH7ifZpJaJg9bomfujBdu1K+94iQH/zivh+ZgsTk0Spb0sR9Gx46ssC+lW6mZdGj+yjvrYLDpdP82Qn+UlPmaUV/bw/KFldRefmf5fNHGwDVifTh/EgOB3Vh/cttDd473l1Vu0JnZBqS/mtzLU+LzoF8dW6wdPFp9l7iv6zRtLc5moMszvu7Y9DBSKroktat+OnVzG8ta3G495qX9qnxgpHBn7Kv/cGK7qBmrOHFz00NeszLOYlAlIkVWMvShXsZHWQdtPX4t9k/6lrmizyF/PaVvdF+5+cepJhbY/qe8q7ESueTySPGKcMvPMV+96tRXrVseelK/9bMpZPrI9Wb5UP9XR57jfDRwdGVq5+/zzPODK1+U9yd2z73z7p7HBfotr+fPxqRnHp+qcGANJhjqu43dXl8hzRx+u09NH9U2y1fkvPT1T+3dtT2PJsFPGV2+MWNvMnT9Tva4NSr8bYA9trbSxwoyUxObKlSvh3XffDX/9138dbvv0r4YD2bExE0kcDDyQWeB6rDB7gybCNzW527apHVqI+uDrgZgHoZGbZBQD3dWD6tRBnAKH981dTjNAYptx8IvJp9rDlM0Dg3Qy5eOiWR71i+W4XbsI5/N9O7V9Rj38gV/9lWS232Vbyf6p31G5HNxauY1tezZKNp/5eKDn4+7k48js1O9zUSdazVvnvPFvT99Z57Pt3nynstnW4/ExKiP9yYyZ8p9/JVxQj61yu3Yxy+eNn4f+U/au/ujWyXq742I05qjexB3wXMaOo9au2mYkq9G5X6fq2C8T20/lulxlliKbchyz3ebcpJB61nbYtx2GXRsnWYscjY9Sm9xf7UvbsWsPnvfkTgGNaV/WC0/556stNd9RnjbQ92WjsmYcq3PMGQV/fRuyLZaxk2SS9pOfk/0EX1EWI2ssQ/JmXpmX+Y9ei/ajDzr6FhaKn7TNu77uztW+P6idjgzV39IPds5iHeL5KW5EO53xx+OW/DvD/rSmd+YO61v7vdpQj79+uU5iQ/Zbwz+L7F9jRWKvM04SP3reSPp65ywbqYxm0JbB98rPwdmCHkX79V//9fD3f//34Zvf/Gb4q7/6q/DQQw8fSGJDEyNPmHHR4c9lohOTBy1K4ntesCV0/cndTKKlfb2Y85YkLxbksKZfOYEJR7L8fLQTqxn0aSF4P7zZLLLcZpb5dWMX2676Hgfi1MQyMVhJX90G+cmdNGNb0icsezxam9vvsqz8nMr5i0leEKwsxra9gbZo8aU2e7pJefNnsludbO3dJ7LhlcshBks9+dL55B/FoPKx0/c617Pt3nynH5SlcXV5BltVtuGimOVV47/RoeV06D/lr8qaqpN9xGzJuYOTfbZ78pccB5VLVa+Ru7OzpOSrdpIsJDtP8cF1q46yjdFn0kmMHWkb6y95rWlzhi7NYzW2jjNPWvmoX1VOjw0rcyNn8U2qR36Xa0y5zjZdcoxtSj50oN+XJfVBujayiDatvZrHlMb+p/bV3Jxt0PRZ5dFcc/t8bG0j/TXkxbWzabfRN9mTZDLjlsdvPGqZWxmn/KCuOzKo66xHp5zv05QExBtH33qnfyMz1tW6sH342OpW7R/LaBal3LZt+12WlZ+p/U7C4I2lVJ7XzCS39JX3medb6rdjVylT+uzbxM6fVc/EvuorJ5/6nLVxqqf9YsuY75nVcbumDnOF40Rs1LcbJTa/+7u/WxKbv/zLvwy//wd/sGJik+EViyVDSJB3JtEKcd2NePx1MzAN5NSe6if1LaEjsAcDscJWB52sv4nEJt7hvPD6ZTNJtckQLwSP935kgfWXCzsNGp44qpO5rbvzYNU61XLR7slGbRvsN05IZBut7XObT0U9X0nPcGe7X3gx/hiEuCPV/Wy2yotv/UmL5SP5S9ksB9nK8ONMEtVO2ibctjqy/Z12VDl5XfpK1pfnZXkqM8dWXplpfbtyNjK8H55/KvrN44L9YYMup3/B59zxX8dk6xPrL/td6efYMrY9rFPsEHXs6SNsP5rPSlveItqOfyV7rkuydseLkEOUSfar85kXPPAugh3H0jZ0TbRbAxfhd9ZRss3nmmOygysP9yPtSez4OsY20nykbRtllvOUZ1Oez2IbfdaY8cQg2cXOMY1+La/Wvr48qR6Vlfrb9hsbWz9omVNf1ebJLveFu/lHeT5/X/ohGzFOpO1aW+b243z+zuVw4Z12bpB1JEvS5o3/i85GfiGXrEMyinml2jTVlzrUa61vZl3ryCDlqZ+NPZjfoh/LEOV8PzwfHzWkx7SdeWbw2B2tp1P2j3K//kp6vymPLbsuV7ntGHs/PP+H+cmQWFfIL/3b2C/qK8rWHTdjF8v16Psi+9vxbHmQfOl5I+ninWOf8TGVoaR0OH9weX5Swcomro/0x7X1Eptf/uVfpp2a+Mc6/+Iv/iL84Ve/ul5iEweEWQho4jZ3tOrgSNDRYJODQzqWIB8NkgpynFRLEGPkSH1KyDnYiZO1XRgd2L1J1ZNNDXSnHVOnLgSxbDvZlUllql27c0Xytv5g25NfXBvVwUdlhF+m6lRdahvc35wj1Z+QadgO2ba1oa3jy5l81Z/47ULQt63qz/hbXZOcy88ea/L6XnwWtivMyX4Kf5LTOvakXpoTtmtnDM/RlcpUv/r+y8wpe9fxTnU4kHaOfrDLsju+n1jg7Ngp9lHy+eNk2TioOpY+ot+Kv9o+rH+lPaeuqfnd6kLfs63KvCF5cRK7gZxKn6hT6S/5hX1mZW7qEcc+q7Ys+S3PQandqZfWKxtSHmUnOY7MZ+qv2Kr1VdWZrxl7qh3xpKP7jmQZZ9YOuU6WobVlus66SVbYdrKOvq7rcnnNZqeMsRPVLTrktZv8lOpvPrHpzFdSrsKj9E26oamC/Vgnlo02Zt7j0VnrpC2TvbR9tH1Tv00dYadicyn31GeWcapccz3LGp8uKTfHxnMor7fMF8nb2JXta4/aNklXOz7k9ySL6mvBjg35i2w7c+1v7GPlx/eV+BzY9cRP/dRPhfjLaL/1W78V3nnnHUps/uiP/njFxCbDQ3d7ZZKQzl94PSUcVgkepLRbISd3AjtnuwLyOICbCSNP7HGALJvc4qCIk1caHLquMwC8ySLLyYOzHBtdalCWHnWpkybbID6T3ExQNOhyWTPZUD05MQo7VTsnPUguWdY8F13L64EmZYtlyP6mHVnXlq93b+riX2xk7grFdqRO9NkJQFV96/OeP7x2pI+6AyWyIXzXK7ekXyuLlWN2WzPk6snrnad+c5uGNfZ9WhDyWOc7wE1Zcz33ReyQ7pV9YscbV1Y+KRtzYu3Gdags91EXPmYz7qS2Yz3r3die29HjIjEvxhbpJfxBOuV+mjb9sSAXWzkOUl9e/+Nz0d6yzdpOO9/J/uwcxHajdyaUbWWiYWRpmBDXbRvsN/dY/Vflj20l27N+VmZdlvtu9fbKVX17fet5ymuDWB/Mk7IOlW1Yjn1n9hp72fHVl1P2MzeZIHnsHGWSeK2ftmu1X7R7RzbFhygzMVbiExAcMFdmdf9KZ5cp5mFwnJBDr0Fijoj1ot+VfsYO5VqUW8wZWdZ17U/6xz5KYhH7t3OVnYOEDlGOImPdedA62/o50Jf6q/4HtvZ8tMj+Zp6zulNbrJ+eNxIr3jkrbypT1w22J7dry+P7Rsahx8bEuRP33Xdf+JEf+ZFwww03hFdeeYUSm9dee221xEbCk6EkCPh8hM2Z6PmxMz0Z8k5Kfrmb24gK5bZ5QeOJMw66BB0D5ww8O1kXeerE2JtU3EEdFyMpGxtcTgr5HLXLi5cZeEp3016dvM1kU2xRB5Yqy7KUI9ullteLkz8QbRn7vcBLOhmbR/uSPu3kXSZftkmWc6iDY9fSP+s56o/LdAPjZKPIlpSDPhs5E3cdvUQ/zCvxU3jzbV1sYoNk2V75HGWd0X8pP+iTyyjbiWAjXldc2r7N9wk/EUMyUDLjofFp7N+U8X2SdVSyVj1KHSufabvbf8NAz6aJozonmXJKPnMt+0Ly58rDPusdZR+NfsZf5oZF9E9dwM1cbG++yH6kLMLG7G93DpVzch4fpLs833yOc1iyMa8DVmbfZnWe969nXxTZWzulepWpXjuk85zxzra3bJFd8/hubGzlmpaH5Cx6+cyxLq0tnfZJJg4otV3LOCMenLrxvJKlU8ayxvVywFxtrPtnPdY6Njbv2KxXTulnxpC8Fj8bTtayf/aLGmvElh4vyjaeDlJGOa7jZ6+8LRPrr53Y1FhFyav6atmpXCSf6bnUs4N3zvo7lZHzYpSJ5yqeh/py2vbwfa9sdeKP//iPw3XXXRd+9Ed/NPzO7/zOeomNHQj5O/2SDg3cCEYfVD0ZGtDMQCJw80KQEqOpiS22NwoCp+oPIDSykbOsLWggChnMda172hVJAyXKJeQ29Tipc8uqwc/yaz3ToOz7hNuXg9lOGhZOq8tWJTbCl6RHWXC03VjnRldrc26Pj/QeUvsHbFV7xGniXy1OTXAXk0jBhu17le8kp2gz8pZtEHWtHAiWcz9yMY6fpyZ6ZTvqd1xHlecFxQaDrHNuT9ovylPb0PJL2ZMv5tqfE3k9hmiM0LPwOkFgP88JDIpMji5Sr/pZ+C3bp/rL7ARHv5q5mGTOvi59Z3tWu+V5RHDR1UXMVba9Wqf6gfoo443nq3hMY6/lKfmIzzd9MAvq6I/j4hcuSza/HB7nI/PmjkFmQD+aIu3ZtM/95COVNSwre8xkINki6Vi5EPJNyV/WVMut74Mqo76ueRnIU3TW9Ssfhttor8JuHqPETKoveZ+y+eR14fth2V45wX/SR4xPec15WqRl2dgnc9OzP8lb7MRjSY8XpZOng5KR28hHr7xhuvqpjuExk8I+ti2h71wf05iiOc7azrODd87onG+kuP2TraflVzbv6Igy1u7Lv5/44IMPwsc//vHwwz/8wyH+Otqf/dmfhQsX/milHZt2MHJmXx3ulhHQ8iNmBGWZ9LgdETzQwJKBUDux1UEfDRPBrXK08LT1qUwEtiy2doBkg3uDfDQpRH3Ndb0QZH2j/qr/tp6SMcohbdYZOGTbolMa0O5gZTmN3XT9FjpXl9GCamQufss+Hk+GvGgL31I98b1jh0ZODl6yPEUOri/8XOt2uCm2y8zausX+wn7R1yXYnOJ1DtOibdZh6tjYLuoXbRnlEePPG0+xLtnOlu3IofTNjzgaFuo4bTmtPnDaF/aWgbGsU/xr5Kh9ynY7Yz/as+idy5fvAzaUfLIf/iz6mywb6xheZB36zOMk+tCXS47r+FnOCdJujX1kX5KvaNfsT9teCvRYppQQFH/INuizsIW6lpjYk8SG7Zlf8o6P4FUbCHmE7lZ+ac/GZkoPj/3Yh5jDRD+pLePvbvLHPMVjkjvOp2yznlyNvybbFzZRtqr9jvvU9eWYIjuW9UPOp+mRdP4JcslrT69Z52k+EGyWvuecEz4r/Ne5ixhp2uP5tY65de1PejbzWpKjv57K+V3GGlP1tF2Kn1X/yb99HxmeifdkSzmu4tMx8Q/MNu3E8s7aUe0tdUv6FDlpLHrn5NiJn1OZpm8zlmcxhjor/zDAHPue+O53vxt+5Vd+hd6z+fSnPx3+5E/+JLz0h3+4PLERINaOHZibCbrCQxBGOKmMmXydenrhsH2ZiTJDqQe1hN3W5y3G+AtR+RdkIoxZtprs8DnZlpwUqn7VLnKRTNeL7gX4KE/8OUgxUcZrZbKU7cYBl35VTA+6M+GCDaA929IE1E4WPCnoCSAvwrbdIrfULfdPfRo9uLyjD/Ub2292N6Ke74feu1rFvqP+uN9m8Y321AwUOUQd7kMtPNSf9n9ajMU5UybZVlxv+kiTqOZVLyDp2sCuKhGRvAw+O7aLskYOG7ZMwpvsl3/xx/Dx+OtW12RrNY54jNoFimTSd8OjH8iGtizbUdk79RU51nWyDJOBniersKHDcOIk1dN2y/WUfKItlp8D6/gO02TZWD+NDf47PIm/zEuxUbaDeEeBebbsq/ociJV2jLw9+YRd0njRL+DXeaWOa80D95Plfoq/+8fUR383dNInxfax/ey7+LO8meXKjpBH6E7XBfdkQ/G92rqVn8pK+8Z25XclW6yv/T1qm6+58jftJtlaWwqd3TppvmKf1r5aXVkefdTtU/3I3etnzDunqZ92pzr7S/xdLLJpbGNox7nyrVAu89++z9dZx4mlFPesa3+ybeyfdyxej4/0ax8p+wuOy3kev/Ga4jj7yvu1V8lG6T/arvVP6YfqaJ7Jd3Lcqf5j2byekNwpRqME1/qaZEjzILPJCUr9HuUb2KbolMq483kpYzjJ/eu+TJleXZxfOfk58a//+q9NYvOV3/v9xYmNBJGB7U1uS89Te97AU443A6cAzYGfHjgsYz3K+ulzvXtuQTTXSTYn6LSDrMib64vB6tok6mDb8M7xM9o82Es/aSDq4JjtYXXyytoJIdUpCwYHPHSs7SZdxN/k4cmHXzQv8vkTfG1fBsNyUpG+snpwIFjlqT7WZRubGznpuvBRbSf1705WzIKtR+elPixnG7CnfqZ4jbr0y3jjscqv7aDOGxv0ZfH7Jps1CU9OhhUvbSLNclT/mzFlbJr6MmVykqJ9W/2lzrOvvDuAmVHuY7SY9W094NTjoTcupspSPd8fbNNyzDq37Mb61SdRJ6mzspuUM36mudawnQMZDkBte1YenqNauSKryY5cJh1tf4kxKXPpQ8qb9Z8sl+tUFtMNlTQfV55k0kk2EozWui2jWpd8Xcz1XXsVXWb6W+khbTZgs6wnrdy+f5iBOucOeSk6yHko8Zfar/ZlG871V/G5WCenbSnl8D5n/oR/OBDuxwj+2ubJV84Ju7DelpO59qc2aVzGm1I8lqWNjZ7OHMNzH4/hJGe2Reac5BTMK13UvDDmTa1lWW6+STNiyV6L8hQbyblOjftkB2vb+L3UFb6oOqV6i1gkXabaNb5w+0aZ6odpW5z453/+5/DzP//z9Cja3XffTY+i/fZvf2lZYqMATp2mQSEnUimMN1HYu6myPE+cvfZiWTlwxADOYKXfca8Tb2ukWp9k7w3WAl0tLxe30m7st0yEWV8V2I10MbqXPvvnhxPMjPpFblM2+TEvcJM2SfJxnTIB5EnFm0joXLFT9WOdYOokVNojGYVNrVxT/Uk/qL6tfWvfjexePWKtwxjJ5Ps8LWL22qBvKb+TRPBYqDa0eu3dd/K9ZxvDVY+37nnlU2srq48Ym4KVaI8iX24v2Sjbushd2dLMpX6Sv2TQ15OH5dB/26lhqfEn18u7D0p32a/93GGv2N60awPYor+1Z/vd2kDbSfST599lLKb6yk52jGedeK5JZT39nbam9DT2Zt0KO3mtIZ2obPI/XRdyLpmTqWyRK8rcY4p9EZn19OXr6VjsI+SSY4yvs458LcqjzyU7Fj9mv0ofyfLVVloebp+Otg3WP9qUP5Of586FcTxkm8S2cxutLgOZyljJc0Uem0VvcZ10kKxYGwsZlN6xjdE17wcTJHNcX80b1l8cM8kbZ1N21Mxpu4lxZPQkdqMsymfcP7cp6hu5K0M9nsdyu77JbKlr5KvYR2pPXdurHRvLC76vvAvTjKGBLU+cP38+XHPNNeHHfuzHwmOPPRb+/M//PHzq1tsWJTYRbAUJQcVA9yaRDLoYJO1kqIGWE6dUsgwsmtRSu7rsYFCJ/mWb2/XZG6g9u+/9eT0h8s5EZ9IaTPC86PKjIK5PysIi2i8T2FjXlrdxebf/weBS5UmmqTEh+48+FTq5/XTKLO5L9rvOZ2/srdPeqnWjXZKt9dwgg5XWtsybmstcu8+Va0V7WP/Z765MHRbcsnPlX7FclFfNq1E2m4T1v2/O/ivK37FZf76o+sl1h9hTdujLQ2VtYNiRI80rI3/78qj5yLTN7A93IEydUXsHf02s+YvsGn2U6y6s1/hwsLZNJTabsB/5VPGXuHDH12iOyUlCk7goHipzbvuqbH8cbEJvfwdZ9unZwTsn68TPqYwc4xuRdz9tc0z6OnHPPffQzz1/5CMfCRcuXAjxp56vuurqRYkNnGsHwP5+7y+4+ysHODjm9p51Q+OY2+iYLCyYC8A5GAADYAAMHAQDJ378x3+cfjjgt3/7t8Pbb78d/rf//f9AYrMtwQfdZYl3PpfsBGCgHcRAO9p98t26dhfkaOuNsQT/ggEwAAbAABg4TAyciD/z/Eu/9Evhm9/8ZnjnnXfCf/4vv4DEZlsSG8i5L89rHqYBC1mwgIABMAAGwAAYAANgwGfgxKc+9Sl6r+b9998Pv/8H/3e4+uprkNggYUDCAAbAABgAA2AADIABMAAGtoqBE1//+tdD/GW0d999L/z8z38ciQ0A3iqAccfCv2MBu8AuYAAMgAEwAAbAwHFjgP6OzQcffBC+9NDD4eprrkVig8QGiQ0YAANgAAyAATAABsAAGNg6Bk5897vfDS+++P+Ga669DokNAN46gI/bnQjoi7tvYAAMgAEwAAbAABjwGTjxp//tYrj2uuuR2CCpQVIDBsAAGAADYAAMgAEwAAa2loET111/PRIbALy1AOOOhX/HAnaBXcAAGAADYAAMgIHjxgASGyQ1SGrAABgAA2AADIABMAAGwMDWM4DEBhBvPcTH7W4E9MUdODAABsAAGAADYAAMtAwgsUFig8QGDIABMAAGwAAYAANgAAxsPQNIbADx1kOMOxbtHQvYBDYBA2AADIABMAAGjhsDSGyQ2CCxAQNgAAyAATAABsAAGAADW88AEhtAvPUQH7e7EdAXd+DAABgAA2AADIABMNAygMQGiQ0SGzAABsAAGAADYAAMgAEwsPUMILEBxFsPMe5YtHcsYBPYBAyAATAABsAAGDhuDCCxQWKDxAYMgAEwAAbAABgAA2LCdJsAACAASURBVGAADGw9A0hsAPHWQ3zc7kZAX9yBAwNgAAyAATAABsBAywASGyQ2SGzAABgAA2AADIABMAAGwMDWM7DxxOa6Gz4afvI//Ey44ad/Fv9gAzAABsAAGAADYAAMgAEwAAY2zkDMN2LeIXeuNpbYXH39R5DQANqNQ4sEGTcIwAAYAANgAAyAATAABnoMxAQn5iExwdlYYoNdGgDXAw7nwQYYAANgAAyAATAABsDAXjEQ85CNJTZxG2ivBEW7GARgAAyAATAABsAAGAADYAAMjBiI+chGdmywWwPQRqDhGvgAA2AADIABMAAGwAAY2EsGYj6ykcRmL4VE2xgEYAAMgAEwAAbAABgAA2AADEwxgMQGL/zjMUIwAAbAABgAA2AADICBY8pACGEjvp9qZ+r6VNIy5zoSm2MK8Rw4UAZ3RsAAGAADYAAMgAEwcLQZWCfhkHXlZ4+ZqetenaXnkNggsdlIlr4UPJQ/2pMk/Av/ggEwAAbAABjYDgZiwjH3P+vTWI/Pyc98Th6nrsuyq35GYoPEpgC5KkSotx0TF/wEP4EBMAAGwAAYAAOSgXWTjVi/91/sJ/7H/cnPfG7TRyQ2SGwKcJuGC+1h8gQDYAAMgAEwAAbAwOFkgBMNyj4m/uf5kOvzNfs9npfn5Geus+kjEhskNkhswAAYAANgAAyAATAABo4RAzLJkJ+9RGPqOtfxyslz8jPX2fQRic0xgnjT8KC9w3kHBn6BX8AAGAADYAAMgIG5DMSEY+o/29ZUeXmd68Zz/HmvjkhskNjsOWR7BS/axaQNBsAAGAADYAAMgIH1GJhKOKaus/29cvKc/Mx1Nn1EYoPEBokNGAADYAAMgAEwAAbAwDFlICYcU//NSUBiG7acPCc/23Kb+o7E5phCvCmA0M56d0lgP9gPDIABMAAGwAAYOAwMrJJ4xDq9/6JO8T/WTX7mc5s+IrFBYlOA2zRcaA8TNRgAA2AADIABMAAGDj8DveSEz/d8KJMV77N3rtfWJs4jsUFig8QGDIABMAAGwAAYAANg4JgyMEpeZGLiJR7yuvfZO+e1s6lzSGyOKcSbAgjtHP67MPARfAQGwAAYAANgAAxYBmLSEf/j8/JzPGe/czl5lGWoQm5Pnufy3jm+tqkjEhskNgXoTUGFdjB5ggEwAAbAABgAA2Bg+xjg5GRuEiLL8Wc+Wv/3ztty63xHYoPEBokNGAADYAAMgAEwAAbAwDFlICYc/J9MKvhcPMrzvc+9cnyej736mziPxOaYQrwJeNDG9t2Jgc/gMzAABsAAGAADYCAmGfzfHB64bDz2yq96rdfeKueR2CCx6QK6ClCog8kSDIABMAAGwAAYAANg4CAYQGKDxAaJDRgAA2AADIABMAAGwAAY2HoGDl1i859+7hPhYzf/YtjZPYl/sAEYAANgAAyAATAABsAAGDiCDMR4P8b9m9zZOTSJzUf+48eQ0BxBaJGgIkEHA2AADIABMAAGwAAY6DEQE5yYB2wiwTk0iQ12aQB8D3icBxtgAAyAATAABsAAGDi6DMQ84MgkNnEbCrAeXVjhW/gWDIABMAAGwAAYAANgYMTAJh5LOxQ7NtitAegj0HENfIABMAAGwAAYAANg4GgzsIldm0OR2ADUow0q/Av/ggEwAAbAABgAA2AADEwxsO7jaEhs8MI+HgMEA2AADIABMAAGwAAYAAMHzgASG0B44BBOZd+4jjs0YAAMgAEwAAbAABgAA1MMILFBYoPEBgyAATAABsAAGAADYAAMbD0DSGwA8dZDPJW94zru8IABMAAGwAAYAANg4OgzgMQGiQ0SGzAABsAAGAADYAAMgAEwsPUMILEBxFsPMe7AHP07MPAxfAwGwAAYAANgAAxMMYDEBokNEhswAAbAABgAA2AADIABMLD1DCCxAcRbD/FU9o7ruMMDBsAAGAADYAAMgIGjzwASGyQ2SGzAABgAA2AADIABMAAGwMDWM4DEBhBvPcS4A3P078DAx/AxGAADYAAMgAEwMMUAEhskNkhswAAYAANgAAyAATAABsDA1jOAxAYQbz3EU9k7ruMODxgAA2AADIABMAAGjj4DSGyQ2CCxAQNgAAyAATAABsAAGAADW88AEhtAvPUQ4w7M0b8DAx/Dx2AADIABMAAGwMAUA0hskNggsQEDYAAMgAEwAAbAABgAA1vPABIbQLz1EE9l77iOOzxgAAyAATAABsAAGDj6DCCxQWKDxAYMgIE5DDx8Prx26a3y7+Uzp7bcbk+Es0Kf1y6dDw/OsUNTxrRz4Wz4bFPm6C+mexUwffbMpcJc5G9V7mw7Zx8+Bj4xY/a1c09szZj90mMXw8WzF8KZTx8DP2G+ODRcbpy7Tz8bXt1njpHYlAH1yXD+uQfClZf43/3h/O3thPLsU3w9Hp0yp+4VbTwQrjx1xwDYO8JF6s9pp8jVysAL6OmH7ld9XTxly1qdpuSx9fk7y5l1f+6ucNqT7/a7wrtRH3vdLi4qmLoUnv4c93MyPHiuBo6vXdLXSO/PnQ0vq/pvhVUWaGu7dx/6pPKTve762rOBPTeDB9uXlYX9PTraNjx5NbutL9s2KusNW+zrPF66Mpdy94ZnrW12TwbdpxgHjp85qVgc2BUZsj7DMVlZbOxNHPeD/6/d/Gj4/k323xfDN27Jbd5yT/hec/3+8DVpl1vub9vYuSd8RZbZPRm+8okvqnLf+8Stil9PFltG6TehmyprZNnZTYmNOw7ZjyqgPBWevhDHebSl/Gxsn+su8/eac1XWTXP5QGj43zX9vOTzHe2mx50pN2N+qLZPtlpmj2pTSmwmks6vvvpk+PBt+e90+Grj79pmle3wn6O1RXG4RGbmlNcnZ23aqJ1+M5z5ckxszoUvue3m6489osb9XviDAt0vPxvudOVYYsOJshQAXwzP/8ZEub2W4wi2n5KVyJP457LD3G0wof6NcwOO98bXSGwyxLT4iIAnLWx6EUoLVD2XyohgjAIo8T0vfr2gj9p77v7wrpcgTQyupu+8QNYFOCc1QqedHOD15PEnxbyAl3Zyuyp5qefOx8RPXTPgDgKolNTUwDHdYRQLSA50ZADVlJmwG+lItqp+ZLtU2xmZSwAu6szpZw4PK8ji+0nL3OW3+FGX77ZJ8kmmORnR5/z6iYt3n4sJuLVdZcZNkj37Dtjx+z8Z2LeVecvzTDtEeSb6p2TCSUKKbJTYiERn99bwjZ1Hw/dlHUpsZLLzmfBBTIZu/kwJYFLSIsrkhEkmLlRG1NnJCdMHnGRZ+07oVnSw9ej7RGJz4VJ4We4GxXGszqX6NmCn+WAiENdyWd96jNVzvblq7txamcrJSzPvWXkMa3PmB2XvvUxsbgtvXH4yfHj53vCM6tPIvMXXVk5sesn5ub3cmZxKXB4Jz5/djyQgyfHq6d8s848ecxvk4wAC4D3T5VCNE8eHZOv94OdkuPP0hXBxPxJjYXMkNsIYCvKcBJRg136nenmRHASLKXlxdjg4oG0WtzkTRVow5cIaZdd9eWWSvLae0tvYwwuQOVhk28Qy3KaWwdGlF0A5ScsO383lu2xUVyQ6UVaqZ84ZHUb6pWvTfkw6zwnmHZ2FPJP22Z0hi2ivq5vDFfU9YLVty5HFabetl2xA7MRgj1kXcpdr4lyvnXR+EDwP2nDt7SRr476zT3vs5v6XJza88yKTlLhjI77/oG3VbpMcZdlMQtQkNrspQZLJj9J5QjdVtrH3wDeUxJwNT5+rO6vxZsTZM3HndXATwxvrTb96rG1mrvLmTTu36n7JNg5Ty8fbVD97mNh84d7wnbefDO894+g2YfcxG4envVUTm+UJ9iZ0TolLN6HYt8d79iuBOpgAeFvYXU9Ox4f7uDtGu0Xu7tAmxonfBhKb3qRtE5lecOY9eiXadAMruZOzIFAscHt1SL74qE29M54W+voYBckirpf2hLz2XLs452D3pQdKMiPr+PoK+HoBlHM+7ca8FV4rd235cQAOiFJA5T43Te29Fdxrjb5OAG/K9PVimeYlV/122EbTskh79z57/dC5JYmNE6zNTkjk+GnGTtKRk+GeDvI8scAJrvGNLKc/e/3ku+gv1XGh67AfnKPDqKyrEhBPxiYpaXdj0s6KSGzMbkx6BE1c535yOd6RsYlNqid3i4x+E7pJPdvPg8QmthvHbzyS/+J4OR8ebG5I5HFUyswdu1WPlu88lpbMVTPn1sYGzVhJnPHNn6Y8+80cvXFb6yYb2Z2ter3awjtHY6jMpbbsneG9+Aja5I5NLlceVzOPqlGC9Eh44wsng3ys7Tsv3Jbu+D9zmh51swnUMy88Ej58W7cl68fH42wduv7qnWEnJ2XpETrdhrTDaonNgG3jO2pfPCat/MTjK9/A48dq5dMHUtbeZ7r7LR8nkp+XBo85uJWPJ5VEKt/Rl9fKZ3P33ZVJyFICW9UfP+rEjz6JR6SETksfS2tl4X4E71Y3o89Y3k4C5iYKKaEodjPvmdSdDF3O05kfJfOu9Vgp50k2aQdnN1D5xnv8se76aBu3ZVnWqvfFULgyY6bIuOHzSGw6BrV3/3RAlxfM5+4Kz9J7LjWZ0I7y7/6ptryFtCNTadsEirQYxoSlWVzrozj07tCSoJZkMIFhDlbffeiO9D6S0954Ye4/zqMX3RzkXDgbHqQXZzmRSZNTSXgu1bvAxTZsO1pIZgZHMgjn+uXxM37PpOfjLKv3PpBoK8nn86Bk78iiyjTtJrskZvvyJk74ejyOdqAy48bH1MZTd5j3Btp2uBzJbXjdyYn9xVM1ySA+m0d58mLUBMFikerYQtq7BJckR0xoZvjBa5eDE+/aD85RMjF6hyYnH/I9nGYHxXnHhpOVqBMlKPLRtSJLSpK4bCuLkwyVuv1xOYe74Ts20WYUTMcAMSc0MXnxfJqDvrPn4o806DE/LceG5irDahoznblV2I/KSX55Xj+V3zvM76LNeeeyn/DvZWJzckaCkJKakqTsngxNQiKSjFKOkpmU7Ozs5kfeYkJS7JfOlfK7OSmSSZazo1QTH05mvLbrXLFSYuNxWuSubcc1SSUpef0p53g9ElyndWwp56lPCh5NQF7tWeXqnnMD8bZeCmLb4JXbTUGsvF4D4FQmf//yBfGehRNY76bgfp0AeErWKE9bxvY7Q17nkbmmXce+1mfp+wX1Yr0to+0sk5PWV1zWHpNsOnHUdv7NcOax/A6VI3dqTyRfJWlN52qylf2quLRl5stt9VjyHYmNM0nt5ABILjAlGSnBUXJQCia9oDcHhnaHhBc8/mEC+z3LkxbUThDKi28OgoucdL4GmRzopsCOg0gtK5epP5og72TXYKEs8CSfH/RG8JoF3tq3ExyWxMYsCHry5yQiLwa8WCy+ky8HV7aLDEqszPG78fuSQZbKdnhQfc2URdWRuojPM+RNPq28KJ0MS3yNuSzJQkkABVdUd/C9vHgtynQfwVsnmEv2vHgq2774OJ0v42aOPWOZDrtsm2U7Nun9Gj+x4SREJyuxn0WJDb9jYx5TY3nVcUI3Vbax1+Cudmw37xLEwDK+W5OCvVin3eXku94lIJR95flOzlU1UdjQXMXsTsyt0h48h8oxwY/r6vcNR9zNmR/WGQsnQ5ljpU29zyI5kTs4lMTIZIPqpmSn7KbkujJJ2dk1ZSjR4WSEEypOfJzvWcayQyO/m10eX8Y0L+5lYiN5SJ/NmKDxZXhfeczl4Hud915yAKsDXLF+ZBtToF0CWXOdAnwTbDeBMQfEbfJzUbZL9UxbWYbWtkaOXC4F8IM2vD4aO8yQ12lH28nzjw3683ezi9NLbObawCvXtpl1lPZnWzu6UZvZTspnORnlxKZJ7mKbThLoybjpc0hs2KF8zAFhE/Tk83qhyi9Sl4CJB1xvkaqLb3FkJ7Ep11kueSwLvAwMOfjmcxzUsUzxmM7VYEBe8z9zIKvt4eiR5Vs1sUlBo3zsLMmjFmNvIaBzg50babfmc7ZH47+BLcwOxtBPpb8eD7KfZbLM6Zd8MZQ39al9m2Tq1fXPp3ZkAq2CPA4Wiz1keWGDptx0MjG2A9tdJuuxv07/RT4hkzzn8SeuL0tsTobmsbPYlklCbCKTHinjxEfIaR5zI1k4sck/UtAkUUL2qaRtbGcTxIl2++O3U2fCxiM5iM3msbOFc9WsubXa3U1qov6deZ3KN/MNc8pzd21f67tPiQ37zyQpaXdG/mJa/WwTm/Kd21JHvfNjExb9aFntgx41Ezs9VK9JtHq2y7+4ufQmGO8iTv00di7Hj5jxsSToxPWmEpsN3QVXj2TJxINt6AXofO1kaAPmOTsitb5ie0MBMMnEj7KZwN3buYiPS3FgnuRJth0nfMb+NhngJIDl4KOSJyc26lzHNmrsLC3j+9DzXdSfbKR2XHJ/XhKrfObr021vLZ2mbYDERhq4l9TEMnnBUwFbvsusA8PBIlUWTbkTIz9PLWzsUD8gVUFnZ2FVZaTunc9p4TZyddqOA4PabxZulnsQqLoLiF7IVZBU5O0ESOW66FudSza0iaqabFX5foDUrxP7HvBQ2l8qS08neX6GvC7TPdZT225gJtvhGwD86I09Ehu+bC1rq/q22sHl0Uugii9q3cavE0H34sQmJxz8+Bj1ZxKbHXrpX7wbYxIYltEmPDqxyQmT+whb1ndCN+7HP/b95I/Z2GenzhpytPwwy/6upMtGTnr1nJ7nNXOTIPVnk2bmx0+e2z7nzA/cpp4PfV9w2fbY90VbNrWtH+0a7YYUWZxHxso1McZqW2Y3J5ahNsQOjqgn29qXxMb+gI0rS2JZvVNj+d5kYmMDaVemnk/98ykhsMmNCeBNP1RHBeapvPoFLBX8+n1Hn24+AM6yCPlaeR15Zsob2+LkR34mPue0sQc+lGOjfvZ86CchsU7PRp5/9DkngeIET/igyuXY3vC1TlkkNmzMUVKTy9CiJB4taxfSJYtUduwgSRg5NvUtFmySX3z3dmdyAGoX7VE/fHe77vJkHc0iz220C7cBeBC4pMdQ6jPHtBCLZ5J5V6fcBdvNj1c4j7RwWf/HA5YnEo29mRte+DwZNpzUcCA1Jxnry8v+yH50ktCxD9uAbVze7iTm/pvkIrUr2ST/L73DWvwix5f8oYu2H2Z38jhgN9Zdntis8Kto3I/85TTzwwFFlrJjE21xML+K1vfh5hObTc1Vzdhp5lb+yfNeUpPYo3bk+JI3AIjTpevFPic29kV/s4PjjpeZiU16PO2R8MYLp50fLMgJ1cRuzP4kNnwzzr6veSo8XX7uuU1smkcqN57Y2J2GPN/Z+W/mdwpomzv1KSjmAN76W9fJZeO7NCKQ1cFvX0Yq1/2bPf16Vqb6vZV9Th+L5I16xiRG6Ev954Be7wQZHeYkP+S7nISsahvqRz+eR35z2zPJyW+cK7tZXsKjz5lkKSdur365JoDVN8YWMxldUh+JDRmVFxi5e8Kf9W5FSm78a/wehnoGPN+xlgGbctCKiU1sowS61IdMahicHMCLu+Z6x4nLTR1NOzapyUlhq7cj00RwyAtC2sqvSU6xGdXnP5LGf+TPkZ/LOYGxthv7Mh3ZPtrPo7/Nk4IN94+Jdu1SA+05srDupawMlvKkMC1vy7jLZJaZ7cB9q2MO0Iq/HXlUeWpTj6N4vejjjZHOox3ERfeXnRwOon2MvK7ecybXCXYpsWl+PGBqt8X8MlqzYxN3W9If9pSPktm+1K7PD3Rpdmz4/ZybhDxS5wndlD9lPfrcSVJ2R4//dOqsJUf0/2bmKs2mncdMH2J+tTcd7LhU42rG/KDtvoeJTU5i9B/ndHZNcuKiy9n3ZdpfMNN6pHFKiYnza2epbE5uyq+vpUfS5CNu+5bYRMab+Ug/VpZuwtV16eUzT9AfoS034YhrXWedxz9TcFpfCB8G0Xa8UrBb69KvVzVJTfJRSgZqWZ3kpOSBf/0qyuAFu7pOZ47O72twW/0/TOrXt/aI7Xj9euWq7Uxgb+0mv7MNbVLDZfg6P4YWj6KstpOvUxoH6yU21n8jX8f+VPkib/JztVOU1znHOzSkc0ymFtiT7bahIxKbDRnSm7hxbjRgcQ18bBkDawfdh1jftXTrJCmYW8Uvf23C93uY2BwDX6304wHHwC5YhzYxNtHGYeIIiQ0mrg0vvhjgh2mAQ5YN8rhW8L9BOfZizlpLNyQ2+zPOkNisY2ckNod8DtqLeQ1tHsv4DokNwD+W4K+zQKLuMV0gKfiXj5uc2vKxkxIS/gWn5X87hjkw7Sx9VBBz8JCj9jGn1biz7ZTHpI6y/c2Y9d+5ZI5xxNoGBo4CA0hsjvKkDt2GAcNRGMDQAQsRGAADYAAMgAEwAAYSA0hsEPwj+AcDYAAMgAEwAAbAABgAA1vPABIbQLz1EOMuBe5UgQEwAAbAABgAA2AADCCxQWKDxAYMgAEwAAbAABgAA2AADGw9A0hsAPHWQ4w7NLhDAwbAABgAA2AADIABMIDEBokNEhswAAbAABgAA2AADIABMLD1DCCxAcRbDzHu0OAODRgAA2AADIABMAAGwAASGyQ2SGzAABgAA2AADIABMAAGwMDWM4DEBhBvPcS4Q4M7NGAADIABMAAGwAAYAANIbI5dYvOb4cyXL4aLjz2ChObAfP9IeP7sxfD8bwwmoE8/G149eyGc+fSgzIHJv0GZfuNcuHj2XPjSIdTlztMXwsUvPxvu3BPZEgN71/4GfbQn+kM+BGBgAAyAATCweQaQ2BzAov2lxy6Gi2c7/0wgRcGVLCsSEq+dV0//5jBhSe3JQDIHWLIP+iyCagqyrbyyjc2Duf5g398Ejn0xZX/Sa07ScogD/vV9U3khuxnmN9n+Om2RbGK8rdNWU5fH1CHVvZH3AOZJyFDHCWwBW4ABMAAG5jGAxOZAF+wUfPvBsH9H90uPccLh1M3Bkt9eBGK0U+C0x7ZxguwUyB/m5Gak67zBMXsSifb58rPhTExY5wTCjj1tX3u7W7Bh/ZmTxccBc4vb2rROh1m2TeuK9uz4w3cwAQbAABjYTgaQ2BxkAJUTEe+RpOk72V7gnoKxXnA9vAM9kMUNsik45yTrEMJP+uyHfMnm0YeunRy+5pQb+sppczsnYI/hw8LSYZbtsNgIcmznuIPf4DcwAAaOLgNIbFSQmIKZ+piYDoxLQJqTAC7nJSazBk0vOeidl7K6gfsgGJtqc3DdC7KLLaRMo8/Uftzh0TZubGdsa9+/qP367dD15rG6/Bids5tCuk297zKlV36cqMqmJwxXJiMLy8FMxaPceSs+UPbRfO7s5sRW6D9tX91P5LaV1/aj9euxPqXTjsuwaFtcV20Z2+0QW+JRSefxLlU/20fal3czpf0vinecXN8K+Xo2sOeVba0exFkdw0pmRyfbtvruydY9J2xnuKM2Z9hX9T0aL7g2fFQYdhTjH6yAFTAABlZgAIkNGy0v3jIQTIFFfdyqBhrmnBugTE/QbrC0ezJQPxOBTAqQqhwlMHPrTT9W05OF25VBIAdn0laTC3K075cvhFdFEmF1SN9lEJ0DdaFTsk1sp5bz7OWd82SkcqItr0z/XN2toTLEkPRJ9qV6Od76otWRbV7tm+t8+YJ40T7XK+ylgLj1k5CHAtvxjxZYn/R1H/E9RydOoIR8PBb5SPa8EF79ski+8jn+UYVWXmuHGbJku0jbpWRJyOb4tu17ZJOTISZyz+d34Lp1sywqsfUSErZR7+jI2+i0Eg/WvhM69+TDeQQsYAAMgAEwsAcMILEho3YWaxVE5QBJBak5cC3B5bJFnoLqpq4NWP02U0A+cac1A0NBlEgOvGDVlyUFYzEZ0XeyRcA3E8oUyJmgWgZfnSBLB4Dsg5rURF1IdqVfKqcC1ZlyerbpnWvsagNQxU/2oymj9ctlpF0En3r3SnPi+S8xInyVbTyyS5JH27enf+98Xyfdbus3zXpqRyQ10RbSpsaWJI/RcVoWbUfWqbFn09d6jJFcilnpe6Nz07e2E8ssj177vk6mLzlOvH6NfWWf+DztF9gINgIDYAAM7C0DSGxssCQXdhVgeslPOlfvrC9xVi8w8gMtPRB6dZ3+cyAylnHQnrKB07601+BzE1SVR55S4O0GoFymBIBzbBNlXMcvc3V0+jC2dgN3ZU9fnzYo9diTcqbrOvm86P9UMfXPiapIeoTvSG5OZpvEW/brffZ1am0xYC7L0mOCx0K6zrrUY2V9hizGZ6ltTzZzTvnRs8PonGlL2N7TueVh1Ha85rXfYWjAw7R9p+TAdWYVR7AABsAAGNgfBpDYxKDCDVJScFBexKcASN9xnnxHQAQsLdBOYEzlTb9uG726LTReQjFflvkvxLdtSlm8oErr6Qdvpp7nA88+c8t5dWee6wV98hGi1vZJn/q3S5wANAfahbsoj8unsO+K+qYExk9ukj+zvIuSm5k6TSafTjvGN619hU2orNOGta9jO/ZtTZBSu7W/aBczFxjZ5owH236sU/uounjnlrbf00m2Q/2IHenl/VaZZbv4DLuAATAABsDAfjGAxCYGJDnYkYGGXeTd4HIq4BwFO1TXD47cIEQ8n68ex5nsYxS45oHWlSUFhirIHvXXu+YEj759pT1y32W3ZkaAz/07/mwHVG5fBHJtmc5E1G1fB9KkY5E/J2nxPZmSKBj7Zjupd0qaXStPptz2xN8wsvpp+TbV7jydeFetPhYX60n/J53kmLTyp3Ey4nuGLMaX1Ca9CyZlEeMk/6x3lduz28S57Gd+T+hLj7EOSV7dtnduTvv1sU+eT+SPIVhbxu+Wh2n7TsjB4xFHPEcPBsAAGAAD+8QAEpts6Lr450daSvCZFm9a9Gec8wIG79xU0NDIUwLkGS9dk05TwW4O+viRI3GsweRUGzMDG0qc6qNC9MiU0IftQzYWcugAz7+bzXXt0bZVdWKZWX8OKvn81DHXc+TnR4Bq4pLsx4+IRRkajnJgncrEQpIcXwAAIABJREFUYNoGsvZ7Rz7VTra1lHGGD6zN5O6Tte/wu5LF0ynpoPsziQTJO+0b3UbSW/l6hixqrEWbUR0jTxxT3JaZB4a2cCdyZs/I6/XrnXPb1FwouxSdhD1n8BD1Uu3ksansO0OW5fbRuqA+7AEGwAAYAANzGUBic0QXZgrWZGB7gHoeJlnmDgyUwyRqGUgJkEgODnBMWdnwHbyCATAABsAAGDgZkNgcxeCE7sY6d5wPRNeZOw4HIhsmQUyC8xhAUjPPTuAJdgIDYAAMgIGDZACJDQLqPX7uc/pdiYMcAOgbE3CfAfHI2CHZ/ezLCj/CNmAADIABMAAGkNggsdnjxAaDDBMtGAADYAAMgAEwAAbAwN4zgMQGiQ0SGzAABsAAGAADYAAMgAEwsPUMILEBxFsPMe6A7P0dENgYNgYDYAAMgAEwAAYOOwNIbJDYILEBA2AADIABMAAGwAAYAANbzwASG0C89RAf9rsHkA93uMAAGAADYAAMgAEwsPcMILFBYoPEBgyAATAABsAAGAADYAAMbD0DSGwA8dZDjDsge38HBDaGjcEAGAADYAAMgIHDzgASGyQ2SGzAABgAA2AADIABMAAGwMDWM4DEBhBvPcSH/e4B5MMdLjAABsAAGAADYAAM7D0DSGyQ2CCxAQNgYA4DD58Pr116q/x7+cypLbfbE+Gs0Oe1S+fDg3Ps0JQx7Vw4Gz7blNn7xeyoBgyfPXOpMBf5W5U7287Zh4+BT8yYfe3cE1s+Zg+Tz06Fpy/U+fC1wzbuyferzmk9O2edwdGhHkdIbMoC/Mlw/rkHwpWX+N/94fztLdzPPsXX49Epc+pe0cYD4cpTdwwAuCNcpP6cdopcrQy8gJ9+6H7V18VTtqzVaUoeW5+/s5xZ9+fuCqc9+W6/K7wb9bHX7eKigqlL4enPcT8nw4PnxER5SV8jvT93Nrys6r8VVlmgre3efeiTyk/2uutrzwb23AwebF9WFvb36Gjb8OTV7La+bNuorDdssa/zeHFlniij5TFjwPEzJxWLAzsjx3hMVhYbe08slF+7+dHw/Zvsvy+Gb9yS27zlnvC95vr94WuSmVvub9vYuSd8RZbZPRm+8okvqnLf+8Stil9PFltG6TehmyprZNnZTYmNOw7ZjyoQ4IAoBh3ys7F9rrvM32vOVVk3OxYa/ndNPy/dG541dtF8rzneqO1kq2X2qDalxGYi+Pzqq0+GD9+W/06Hrxq9xizU/g5bOVpbFIczZHXHrBjTR8Q26/pqDlvr9rG4/lpzWo8NJDaL/XAAYwSJTTY6LUIiCUkLm16s0kJVz6UyIiCjAEp8z4ufG/TtngzU3nP3h3e9BGkChqbvHEDXBTgnNUKnnRzg9eTxgc0LeGknt6uSl3rufEz81DUzQQwmm5TU1Dss6Q6jSG5yoCMDqKbMhN1IR7JV9SPbpdrOyLx7Mng8+PYSdefwsIIsk/125LWMz2lnh+STTLMt9DnbVsOn8UtiXyTITj+2zZ0BO01Z7q9h3vIs/MV1eseJ/imZcJKQIhsFSTIoujV8Y+fR8H1ZhxIbmex8JnwQk6GbP1MSl5S0iDI5+JKJC5URdXZywvQBJ1lWxwndig62Hn2fSGwuXAovy92gOI7VuVTfBuw0H0wE4lou69s6L9UbMfVcb65q2CU2Hwh1fkhtyHm04Znn9zJvzuRsOA72MrG5Lbxx+cnw4eV7wzOuj2fKf4jrrp7YyDFbbyp0x9IhtoEeL5vzKRKbzdlyr3x0nNpFYtObhHJAVBYz+53q5UVysHh5Cx4BRgvYveHZJvidM0DSAi4X1tim7ssr0y7IU7C7Ab2xRSzDsmgZHF16AZSTtOzw3Vy+y0Z1RaITfUD1zLmeT7vnp/2Ykp9xMD9ly9ZHjn12Z8jS1UO053BFvhmw2srvyOK029SbKtO5HuVjjpo2R7sCA3u4PA6DR2FD226P3VxueWLDQZJMUuKOjfj+g7ZVu01ylOU1CVGT2OymBEkmP8rGE7qpstYuI99QEnM2PH2u7qzGIOjsmbjzOriJ4Y31pl/tq83MVd68aedW3S/ZxmFqI+NN6byHic0X7g3fefvJ8N4zjm5Khu29vqnEJvpbjckjYp/xGB/7HYnN2D7r2BZ1l9sWiU1vUqLgS9yl40RElE8L6XiHwg2s5E5OJ8gbwuzVIfni4w51J4Ll4+SMZBHXh31kPdvFOQe7L/lBqK+vALMXQDnn027MW6E+u5u3gUtAlJ/t58RH+Cbd3X8rzHum2gngZVtN0ij04eTLe2zOtBHtPWmfDSU2Xj+tL6UezmcnWCOmRjtyvFs0KuPxy/U6iRex4PnZsXHlOvlVJ0v5rv5LYmwP2xB2cRitfc0IdpqkpN2NSTsrIrExuzHpETRxnWXP5fgusk1sUj1951nKvtJuGPc9SmyizeKuSzyS/+IYPh8ebG5I5LFdyswdu9U/Ld8rzFUem87cqmwX7eCMlVaeKmtTv9OGLreHic3uneG9+Aja5I5NLlceVzOPqlGC9Eh44wsng3ys7Tsv3JZ2HJ85TY+62QTqmRceCR++rduS9ePjcbYOXX/1zrCTk7L0CJ1uQ9pvk4lNGqdyPOXdV/GoafcmQhk3kofMf7ND6axxNA/JR7brDYLmZiD1tSo3ue/y6Hf/BmI3sRHjnOyf27K7s2Wt71yPfpT1/XfNrLzRRmybBfZ1/cO+yu2ce0LL0/htJO9YFmUbsp/wtdOPZByfk5+Q2HQgtnf/dECXF8zn7grP0nsuNZnQYPl3/1Rb3kLakam0TYto7ZMW0JiwOIsrP2ZF7w51gsbSbtOvCQxJ1pjQ3JHeR3LaI1lGQW0nONQTYx34D9KLszw5JWjlJCgfS1N68OQ/JxjOenECyO0kBvg9k2pvvp6OWdZZiY3Pg2qvI4sq0/gp2WVK3sQJ6xOPox2ozLjxMQdrui3dznQZp+2st/sYo1gc59ihlkn2Ln7NAerFUzP84Nm4wy73R8mECGzS+zYiCcnJh3wPpwl+nHdsOFmJ/VCCIh9dK3KmJInLtrIIOUodXqxPhj1PbCj5yQlNHJOeT/MifvZc/JEGPebZxv3jhuaqJXOrsCMxb+Y9PUZWG29a3zTXqMBHyKDLCt/mMnqOba9PJwgpqSlJyu7J0CQkIsko5SiZScnOzm5+5C0mJEX2dK6U381JkUyynB2lmvhwMuO1XfXcbGKT3pdL4y0nNerRz3S9Gd9F5ypXsQPNLyZ5sHOOUyYF/Dxe8nqk1r1VuIl1uM0kq+5Hy99lSwTmhVujQ1rPZV8pQSnld0+GWEat9dRG3QXm9/xknWZOM/2S3emc7FvrVXxT/Jbtq37EI8kr5ZuUd44sPB+KH/kgHyC5EXOH7y8kNgVYYaAcAMk7vSUZKcFRKp+CSS/ozcGb3SGhAE4EgvZ7lme4KPLim4PBIiedr21zoJsCuxTMyR2dOGi5TP3RBHknuwYLSR7W0wlMpdxmgVeTQ2ciKRMjXa8Tlp70eFLJE1EuO29XRvhX+TzbZSRzLG/8rnRS7fX66fCg6s6URdXp9DdD3uTTyovSybDE15jLkiwUhpiNvCtldkTaccI85kTrubuC/87DKosy2yT1cfFUtn3xcTpfxs0ce8YyHXbZNpOPp6gdmxQMNYGPeqRMJyuxn0WJDQdaqk22jTlO6MY6+sd2YS/lYrt5IY6Lcny3JgUAsY4J4sRdWRkklLY4+S0/8CJ/DGVDcxVxz48Ii13pzniIsvEcKsdEkVmwtcp40+2sMxZScMi+0O0aFkRyIndwKImRyQbplpKdspuS68okZSfvBpUylOhwMnIy77hw4uN8zzYsOzTyu9nl8WVM+lFQqAJ+o7fwVbGPGrOivNwhpfEld29Suf5YFe2oPlv/0pgpv76Y179GBzn+vDJtu0U/1X9Prnx+MEeU9du2l4NzlXCoHV4pe+2/215pX9dzyzfytnbQ9q399+2zqn21vLyzJu1i+bTfSSayZztv9uWdo9PRK4PEpgyU7NwcEDZBTz5v7yjTolYCJgakF8TWxbeA2ElsynUrX/xeFvgaTFJ5XpSpDgd1LFM85mDS3IUf9cWBrLaHo0eWk8o39hAyNJNNvkbn5WNn6byasLy6uZ4bCHm2U+eyPUbyivKk2wLbVbv2eBB2Yd/MlKW2LdvQn6fl7Qf4vbr+ec3anDKe/LGe5mw6mfDaqefY7jJZjzbS8tby2n7NeY8/wceyxOZkaB47i22ZJMQGR/TdvINDcpoAjGThxGa3k0QJ2aeStsYWsq4KVLQN++PXLvS53oSNR3IQd80jsgvnqllza9VxblKT5F4+3rS+bWCmr1e5vPPKF8p/nXomSUm7M/IX0+rnkrQ4OyutLHrnxyYseueo9kGPmomdHqrXJFodXThpbpKCfnmS24yrootMZsyY5TLdsTqyveS/CWJ7/k9jKQXJqwberR2Il/IYGj8O5e9udNlydh3YPumYZOdfvFRHuTOR21HXL9UboG4SIG3JNpfnGvu2NtCyxusz7Tshb2w32Tfb05GFdGrsH/2AxKb1i/YdEhsGPh57SU28lhc8fVfOWzQ5mDJJh2hD7o7oz04dKV/57C+QKqDsJEyqTGlPQyGhae+0sy38O/3U/ig4lxOL7D9PBDpB0RO5P3l2AiTZtvs52dAmqlJ3/dnzdd9ute6AhyLXUlnm99skCqVP9qMN+gfn+e609a8ZG26yb8pU+2RdXF5X9W21j8ujugFQyzYySVvFzz12c7nFiU1OOPjxMeq/CZLiro24G9wJtGwQpRObnDC5j7Bl/Sd0G9um7yd/zMY+O3XWkGMzc9WMuTX7e1lSMxhXU2OjcKjnw7FPWq77vmjLprb1o12j3ZAiy6zEJj/CRkmJ2fGJulIbYgen6K/lPMjERo31ZswmOe1NiWKjjj7peh0X5C+ViPX8X+vMDryHMvBcZwLowdjssuWu69KPUnZ5Xn5OZeTuhp0/3P5deWt/rX1ln73PcxKbaXldX8tEbtVEfMqvx+Q6Eht29CipyWUoSBKPlrUL6Zwg1gwYN6AzZVhGcUx9i+SC5BffeQdA7jDkBXQY7Io+0uDLQXdpJ+tYvmtZ3UBStulONqmNdIei3hGiiUc+a091612aKF8qYybg2F8u6z+mtjyRaOxddMoTnXsXZQ4P82XhQGpOMtaXl/2VZbNJyuQPHCR5ZYLf+nxOGZajBnyWy9UWHtFu9FHDfJLN9pVYN3WLj/P5Abuxvgp2bN343UlKbEJid2y8dqkfuWtD7T4aZILUJDYH9KtofR/WAEPZfsLGqmxj4zyWyty02lzVjJ1mbp3/+FmVd9XxJpnsBbayTP8z+cIET1U+p5590d/s4Lh1ZyY26fG0R8IbL5x2frAgJ1QTuzEHldik8SduNuSxJX+SPY11PSZdezUM8yOD8SfS23XNW+9o3RR+1d95fVr4h11pHMr+03jtvfvWZWsyseGX7Ou639qpTRR4N6PcCLXy0nf54wGV7ySrb9+271ovXVstsWnkzX4nWc6dpT90WnRhJrIOzXm+jmP3XRskNgQHB6DyxWr+rHdRUnLjX+MdH70Lk8p2A6kVE5s4yEqg2/0jn3mhF8+ky4B0ehDzoDbtlMAhX89JYau3TLRyWRqs/UmMJ4C05eyUKxPWeGt8lNhou7Ev05Hto/08+uU7XjjkIjBll/rI1RxZ2E+lbC8ZEX5uk5+WcZfJ7Eu2A/etjjlZKP525OGEolem6NJjNy+I9tED+i4WcSVXb6I38rp69+rK8xPspoBn6g90yoAocmJ+Gc27+5sTF/k+ju1LJjXRJm1iwz8tbfufNy7Hdu4kKcO7jp06EzYeyxF12cxcNebT9OGOuw2Ot8LgHiY2OYnRf5zT2TXJiYsuZ9+XaX/BzPMbJSbOr52lsjm5Kb++lh5JK4+8eT8wUOyUmTbfaW1ROyB+OSVrHnvyBz/U350qfeRxLH48xI5J1W6p58mQk4iOrCm54fWvfXybdzN47ow7HVF3vePh9SvP8brG/VwKTz+sf6I9/QAIX5dHsRbOSGyiXfS6n9qS8lqdXz7zRJMMqDJxjaC+nRgi7xb7Nz2lDbzPcxIbvuFabeLJSzzwOtdb05p4x/O3J+fxPofEZjjBHG845k/EsBNsdQwYWDvoPsQ2Wku3TpKCubV7R3G1+WIPE5tj4KuVEpsDsQvG02rjY+78CvvurX3n+mHvyiGxOZCJa+8cetSBhX5g58AYWCv4P+R+W0s3BAr7wyQSm3XsvB2JjbcjcMjnjq2KoWDfdcbQttRFYrNVgxIT3LYMLMh5BFml4F8+XnBqw3fk99tmKSHhR1Z6z89Ps2za6T1Wgbl2JV7UIzbq72cs48W2cyye3TdjdrXHj5bZeXq8eO2JMdR5BG21dr2+juM52Pc48YPEBovtSovtcRok0PU4LoTQGdyDATAABsAAGNg2BpDYILFBYgMGwAAYAANgAAyAATAABraeASQ2gHjrId62uwmQF3fAwAAYAANgAAyAATCweQaQ2CCxQWIDBsAAGAADYAAMgAEwAAa2ngEkNoB46yHGHY/N3/GATWFTMAAGwAAYAANgYNsYQGKDxAaJDRgAA2AADIABMAAGwAAY2HoGkNgA4q2HeNvuJkBe3AEDA2AADIABMAAGwMDmGUBig8QGiQ0YAANgAAyAATAABsAAGNh6BpDYAOKthxh3PDZ/xwM2hU3BABgAA2AADICBbWMAiQ0SGyQ2YAAMgAEwAAbAABgAA2Bg6xlAYnMIIf7smUvhtUvnw4OHULaDzdxPhacvvBVeu5T/XTgbPjvDRmTPmWUPVj/cGfLs/+C55O+zD8M+nn1wbvNcMHOvXboUnv7c5tuHz2BTMAAGwMDeMIDEZkZgvHn4UoD+8plTbmaMxGYa9iXJypKym/f1tC7oc2wjDjKR2IzttApH+zE2Tj90f7jy0gPi3/3h/O1alzllon7PPjVuJ9ngjnBR9vfUHe48O8teD5+nGym9uXpWGweyxmj7Qk7YAwyAgePCABKbA1l0kNisO8CWBGRLyq4rF+pj8dgmBg5ibKQk5t7w7GDu9cqkpKbWS2VMknTqXkqgLp7aHIdkI+ygr54cDvy8TWMFsm5uTMGWsOVeMoDE5kAmXSQ260K9JCBbUnZduVAfE/Y2MXAgY+P2u8K7L5mExM7Dtgx9fyDohOWT4fxzD4QrZUcm7dToMhvgkXZt8EjaNnENWTfAvR2T+I7kfksYQGIjHJXuzIl3OM49IUB+Ipy99FY4+7B5z0OVORl2Pnc2vMzvgNBRLoipjfKOiCpX36lJcpwPD+bHIFJ52U6atKy89nEJeoQnyqdkqv1MT/5J17MPV7n15yhHvtaxg5TJyuu9R8SPHUkbeY8gUVu992aUvsvex5E2eeaFR8KHbz8p/p0OXxW8xLJffVVefzK894xcUO4M772dzqm2Xr0zc5Wuf1i+57pfuDd8J9cr8uRzRZ7L94ZnhCzUPp3LbZLcj4Q3viDlmfrMjJ8MylfCt+m8Zsj6onzv8lsTe+Vv408lg/euA7V/Pjxo/N3wouSo41uyWewsbGrPfe3mR8P3bxL/bv6MmB8+Ez646dHwwS23hm/s9MpM2T/bPdpBydyOfWW3OI8IH0W5iw94fJq5qKkv5qLGfmxf4x9rn7nfaeflubvC6YGtmzK0E1N3a2Jf5fE1bsspM1emUbnEoWZ+VB7XpjmHjWAjMAAG9ooBJDa8uD58PqhAJy/m9ZwM7jOQuUwJBOx3DjCaoKwGdp5jS0AnAgkKRETw0i62Sb4q78lQgxdelHNSJtrx+q/ncvksP7cX9ZXytLLIwCrbioNQtrdzpDaFzpw0FfuKOtSnKtvxCfvAKyvaqzrndp45HT58u01kZDlKamSC0SQkIsng5MWUSQmP7qcmKVkWUyfKYPuuiVNNZmwZKbv/uTJeAmXD9BxfpzJvhdeEzbVvmau3xJhr+S0ykgxtcL9Tgn/mmxOy+p2T+srQoJ8BD5TU7NwTvlLKpETm+yW5yd8pucl+u+We8D35vdTN153vxXbi0Sdtuzz2hG15nBSfMfNeMqPqOePUkYltKP1ZfOOVd86VJITefdEJCrc1KkPXOIHZzTs1z90VnqX3d1J7XCadq+/irLaDUxmNN1kqP33fsR44wkZgAAyAgYNjAImNswgnINPCVhMFLyBK53jRswGI3050tm1bAzAdPOp+eQBRPRG4kDwiQIrlbBmu6x/z4p4TIWrP+cyBFduB9avfTwYOQtU5aXs3ePX1HOkhZWSdlumcfUGJjd2BEX6iZKMmEdwXJROcxOx6OzK3hTcuPxm+88Jtatem7vTY6zmJKW1mGUz/KbEx8sxIzljudEz2lgEy+5LHwTSbTnLRcKe5Sn0PxoTLBjNlEh6bQNvvuzop1/oL/0o2ewnKLfeH7990f/galU2Jzfc+cauzi9NpV/aRP3v2TYlF1tMkmkV+o2dqZ8I2jV/my1n6dXSYvDbnPRhThpOW0975l0Ri89ID4d2HPll9QOUnHntzdRjw6JbfJ9uh7+pb2AK2AANgwGEAiU0xSg7qxCMZ8U4dB3QcvNfvcSHTgbcXVHNgOAoWbSDgBTd0riQtvqz0+FYp493ZXbr46gBU6ic/R/mVfCbIKvrR+fookEpy3DravqUd21/xoR+MKNlK2Rm2yMkNP/5Vk4+TYSfvovA1dSxJSEpsahLj96l2VpxkhK6rR+L48beayHg7P9Je8z4ne2vGtczTbB6yxKZJBKZ1bGxFic0Xwzdu0bbYocSGz+91YpN3DWYmeZ6fGr2648jouWTMzCxLj5qVd2P8/lSZnNBcKbs2qU5JePjRNHN9J+/uqGRnpoxxjhuNBc+eOOf7EnaBXcAAGNgvBpDY0CKnA/hkfBskewGRDrxtsO+3E+G2bWvgvaBEB+e63x4sJI9IdHrl+ue1XaR+8jPVFwFXvDYZEOQkpyQ3on6Vp6+ntke1XyPXpoI3u4NjdkyqzFWWnbxjM5XYpCQpJSl6xye15Z2z/SGxyXa3CXJObOQ7W5Ns2sB3mNgcxI6N2YmJ8hq9vTnEMhO/98aRV3Zz59KjZONkw5QZ/HhAaYeSH/uYW/pBgVLG+hbfcccXDIABMHCkGEBiQ0DrAL4s+At3bLzHrXoBBgXgnaTDq2MDEKpvHjOzgceoD1vW/67tIpMG+Znrpv4uhZcn5ErlbdKSvtedrfy983y7tQfLYG2Xvuv3PbjssmPafam7NumRsQ/lOzbN5DhvxybKEZOX77xwb3jv7boLU+SzSVXTz8mwX4lNYrwG1p59rQ+iHnSu8K65Snqmc27S4Sa9HMxXWagdE+B7nBa7Onb0r+UfBHDesamPnu3Vjo21Vf5ebBkTujRWpO08H7i6kb2MDa1dODlUfcoEftln2mWZ+FU0rwzt4OTHzqIuqYxMZEwy5JaZK6udj+bWQzmXM8sUvh+pQBI+x7g/TAwgseEJlhb4+phUDLBjUFSDhTZ44ICi7DrEtmw73SC/Bu7pbnJ94dkLSnRgmAYRBW3dR+f291E0gjoHQNVmdbAnnYR9VdKYy3EAVV56TjYq9lXXZVs6MFN2ie8ERZ8sDMpSosCPfKVju/OSkxvzmFhNfuYnNjv82Ft5jK3ajmzL12VfIqnat8SG31Fh7qJdjX2n+bXBetTVJja5DPcjjoUvGmva92n81bHEY1Tu2NhHNudNyObXzm56NNSkJsq/ycRGsi3nIGaitU2xSZ7PPB/09FTjxbuRwONu4Rji/lJCUl/mt4+TxXJzyrTlZFLDtjF/nFMkQizPvCMSm3l2YrvjCHuBATBwOBhAYsOJDY7r30GiAMgEmmvZ1SQ2a7V1OAYcJr799IOXQMX+E1c2GTgMvlmSkBwGeSHDfvKMvsAbGAADYGCKASQ2CJbXT2jIhnsRLCKxmRrAuD6a5DuJTd5VLTuBh2gOQGIz8ieuYbyDATAABsDAmAEkNocoqNlKWPkxFe/RsrVti8RmK5lY2+/jSWuRTQSf9XG0Te4qblBWfhep+/jqZvtaZMfD5FPIsqGbUeAJYwAMgIGjxwASGyySWCTBABgAA2AADIABMAAGwMDWM4DEBhBvPcS443L07rjAp/ApGAADYAAMgAEwsJQBJDZIbJDYgAEwAAbAABgAA2AADICBrWcAiQ0g3nqIl2bzKI87QGAADIABMAAGwAAYOHoMILFBYoPEBgyAATAABsAAGAADYAAMbD0DSGwA8dZDjDsuR++OC3wKn4IBMAAGwAAYAANLGUBig8QGiQ0YAANgAAyAATAABsAAGNh6BpDYAOKth3hpNo/yuAMEBsAAGAADYAAMgIGjxwASGyQ2SGzAABgAA2AADIABMAAGwMDWM4DEBhBvPcS443L07rgcSp8+fD68dumt8u/lM6e2fOw8Ec4KfV67dD48uNJ8aNq5cDZ8dqV2wLHH/WfPXCrMRf5W5c62c/bhY2BvM2ZfO/fEHozZxP+qfvF8volz7O/DJtcmdEMbx2DsrrGGILEpxvtkOP/cA+HKS/zv/nD+9haeZ5/i6/HolDl1r2jjgXDlqTsGE+kd4SL157RT5Gpl4EF9+qH7VV8XT9myVqcpeWx9/s5yZt2fuyuc9uS7/a7wbtTHXreLiwqmLoWnP8f9nAwPnquB42uX9DXS+3Nnw8uq/lthlQXa2u7dhz6p/GSvu772bGDPzeDB9mVlYX+PjrYNT17NbuvLto3KesMW+zqPl0Zmq7c3VnZPBt2nGAeOnzmpWLxQG1nHY7Ky2NibOO4H/1+7+dHw/Zvsvy+Gb9yS27zlnvC95vr94WuSmVvub9vYuSd8RZbZPRm+8okvqnLf+8Stil9PFltG6TehmyprZNnZTYGdOw7ZjyqgPBWevhDHebSl/Gxsn+su8/eac1XWTXP5QGj4z+V4TPWuR7sNyyxiM9lqmT2qTSnQnUg6v/rqk+HDt+W/0+EXkL0UAAAgAElEQVSrjb9rm2MuDlc5WlsUh8vk47Wptf9+JzaD8SZ8hcRmmX+3iWXIOvYtEhu5QIkkJC1s94ZnxUSRFqh6LpURwRgtUuL7blpkm6BP9vnc/eHdTtA3grfpOweSdYHNSY3QaScvoj15/P5yoFDaye2q5KWeOx8TP3XNADgIoNLCUQPHNDGL5CYHOjKAasoIf/n6nAw7ZKvqR7ZLtZ2RuQTgos6cfubwsIIsXb2ETF1+ix9bHd12ST7JNCcj+pyq69SxY2dntzLjJslCl9L2gJ1SxtZrmLc8z7RDbHeif0omnCSkyEaJjUh0dm8N39h5NHxf1qHERiY7nwkfxGTo5s+UxCUlLaJMTphk4kJlRJ2dnDB9wEmWtdOEbkUHW4++DwKtOGYvXAovy92g5pwfGNJ8MBGIa7msbz3G6rneXDU9t/Ic8kC4+FC6mePOHTQOBmUym7Vulq07RvcysbktvHH5yfDh5XvDM66PF4yTQ1p/vcQmMnopPH3mfHitYdLnV7O5SfsNxtshtf3e2WKTdkVbR8VPSGx6E4FddOx3qje1EOW7dV6gzwEttTsIEl35/ISJgsfSl1cmybsksfECZJsIxDLcppbBmSh6AZSTtOzw3Vy+y0Z1RaITbUP1zDnXZo4spdy0H5POS/3U9jlpHw74u8FN26Y7GTlcUd+L2nXs4rRr+3eZYd6zzalMYXWOTqst5q69ncTL6uB+77GbdVqe2PDOi0xS4o6N+P6DtlW7TXKUbWcSoiax2U0Jkkx+lI4TuqmyZdyw3wa+oSTmbHj6XN1ZjTcjzp6JO6+DmxjeWG/65f7T0eXOzNvTc5U3b9p5PJbJNzlM+9VO02Xc8Ujt9W6g7GFi84V7w3fefjK894y2adVn+8+vldhEHimh8VhP59qdnL2ymSfDXvWFdo/SGDguuiCx6S2WdsEygVkEJC2k4x0KN7CSOznUz8KA2atD8sVHh+qiyPLxHUGSRVyfA3m7+OZg96UHSjIj2/H1FZNjL4ByzvNWer1DZh9bSRO8+9w0tfdWcK81PncCeFOmrxfLNC+56rfDNpqWRdq799nrh84tSWycBICYmkxIUnBYdu7yWOLkl3dr6nfWvX8kFjjBNb7p2cDvJ8v2Uv/xom57DqOyrEpAPBmbpKTdjUk7KyKxMbsx6RE0cZ37yeV4R8YmNqme3C0ytp7QTerZfh4EWrHdGBDGI/kvjpfz4cHmhkQeR6XM3LFb9Wj5XmGumjm3FhtktnmOLefZL/HYKdPKG3WJfPbWg2SjVQNoGkPNbgPb787wXnwEbXLHJpcrj6uZR9UoQXokvPGFk0E+1vadF25LO47PnKZH3WwC9cwLj4QP39Ztyfrx8Thbh66/emfYyUlZeoROtyH9sU5iE+uy3dt2mH9eC/Lj1Ha+yjfv+JHa9lFrbudkKGtffOya22nqi8e2pV9pLNdr8gmHZA/uZ6m8Hb0k6/hcdtYle/jM88z+HJHYdAZiSgpMklACurxgPndXeJbec6nlNMApiLIBnAoOvYW0I1Np2yRZtEDGhMUJRHlRpXeHlgS1JEPSs8ifF+h3H7ojvY/ktEeyFDs5EHcCKL3o5gn3wtnwIL04W+/sRhvISb+dtHOfPLnzojCyaSfw4MQwvXfV8zEvDnMSG5+H4tcoY0cWVaajy5S8iZP63oz3Hk7tx0+wOBjTbfmBWC1jryc7XDyVjuW9th43TRDscOXahPvJ5XPyz/0Wrt26Th8ddtlmlEyM3qHJyYd8D6fZQXHeseFkJfZDCYp8dK3InpIkLtvK4iRDpe70Y3aso3/kQKljs3KnOyc0cUx6Ps2B29lz8Uca9Jj3+5X9bWiuWjK3RvvNGa+9Ms58zWPGT5TSXMMB9rRNpH3yvCkDYOn/+HkyQUhJTUlSdk+GJiERbZRylMykZGdnNz/yFhOS0n86V8rv5qRIJlm5XZnc1MSHkxmv7WqDNiGp16os3rnIt5jfm3kg8a9+2IFZ5h9osN/LOibaze+qUeLD65ZTb/hOW7Fp1KM3Lqu8Zf1s+kllKmt5nWO5VD+ezXBuzBTss5f2QWLjDdAcAMnApyQjJThKYKZg0gt6c2Bod0hokROBnv2e5eEFrgR98i4eL755wSxymoWSA920SHIQqWXlMrUfeSe7BgtJHq7rB70RVCrXC1Cjbs2ikOxYEpuckPCEm5IYDnI4icjfc9lyR8vz5eS5bJeRzLEN4/flg7LDg5JvpiyqTmeCnCFv8qlgUbZrWGJ9mUsZeLVjQOvBjBVO846l3F3k3ZX2xf51grkkx8VT2fbFx+l8ladjQ2mP+LnDLttm2Y5Ner/GT2w4CdHJSuxnUWLD79iYx9RYXnWc0E2VtXbpBlDZZjmYprveFy7lH/uIgZMM6pIPKPi8VB9bU/3m+U7OVZWXDc1VxP294dmJubXIlcvJ8VCusZ0GZXhssE7Dd3byo7k12JzJbZajzLEsV+8okhO5g0NJjEw2qH5KdkrCkevKJGVn15ShRIeTEU6oOPFxvmc5yw6N/G52eXwZBVurBOZxbMiEcDIJaPsjrmUbpIOd23LCoWS0ZWLbqRyvkQ1v2T79cjZpcdokHfX4nM1P6T/ZoS8frsM2e8MAEhs7CHNA2AQ9+Xx5vCbXo4WpBEzspF4QWxffAjQtep3g0srG3/NCqQNDDr45+eCgjmWKxxxwOjstRR7uIx85kNX2cPSQ5Rt7CBl6ARSdf0svIHxXixcEr26uNz3JCxmKjtkeI3lL2Zy0LbBdtWmPBynTMllq27IN/Zl8N5Q39al9m9ro1fXPp3Y4uPPGRArgmHNdvujCQaWw+VQyUerKOuUz210m61G/Tv+lnrZj6cPjT9RZlticDM1jZ7Etk4TYRCY9UsaJj5DTPOZGsnBik3+koEmihOzr2bkfaKlgSNmvU0eVEfpJWTufNzJXzZpbhVyDpKVwM6cM60RleQ4X/dB1L8i1ZfrflS+4v9HRJClpd0b+Ylr9bBOb8t1tX+/82IRF7xzVPuhRM7HTQ/WaRKuv/6o7Nm295Id6Q81LFPIvfIqkvpZnGee1UzgqtuyMnXKd2++V8+S1ZW0ZKyv3gWPrH9jkoG2CxEZOBr2kJpZxFycvwOdgylmccht8d649OnWkfOWzH5CqoJP64kCyDjRVprRXr1sgU0Bq5Oq0HetS+6NEoRe4NHfBokx6IfcXZjsh93XRuiUb2kRVl5Fteb6W13ufBzwU+y+VpdeXPD9DXpfpHuupbS9psWPDZUwx48vWsraqb6sdXB69BKr4otZtWOixm+suTmxywsGPj1F/JrHZoZf+xbsxJoFhGW3CoxObnDC5j7BlfSd04378Y99P/piNfXbqrCFHyw+z3M6DUQ+XjZz02mTfZTr6vTeGJE9zyuTy3X7oup4PfV/0+e37oldHP9o12g0psjiPjJVrwia1LbObE8tQG2IHR9STbe1PYpM4re/F1HdX6uOSqYzdSZMJkfxcdbD+9Nup5dlPnbHT2KlXzuvHlk3fld5qJ4llwbH1D2xy0DZBYsOTwSipyWVo0RGPlrUL6Zwg1kCvAj5zjWVzjqlvsWCT/OK7tzuTF1i7aI8hzEF3ufOfdSzftcx+sCDKDAIXmvzFs/W0EIvv6a6yfkwlldFb5qQP9SNevFQ2XJ5INPYu7eU7Wc5jNeXxKsFMa+v5siQZxj9Wwe335WVfZD86SejYh0le3p2J/dnyXt927DQ/ue0ElOTbdRfThvkk/7IxkG02YDfaYXlis8KvonE/8pfTzA8HFFnKjk2U/2B+Fa3vQxtIzbMx8+0f81gqc9Nqc1XDbzO38hjabGLTjJEyx3B/NhDm8/OO5Ave/W7adtqwL/qbHRzXBzMTm/R42iPhjRdOOz9YkBOqid2YfUlsemNe3YhzEgWqJ9alvB7JJwvS2sWPWUf7O+24fsprzuTc2Bljbj+67GJWXDkdplBOvFsG+7hzyAYYQWJDRuSERL5YzZ/1bkVafPxr/B5GuxPj/4IYOXXFxCbWLYFu94985oU+/xHFKJcMSOdDZdopgUMemDkpbPWWiVYu21soMswpueG7YnLSl/X5ejw6ZWJbeSFpt/+t3diX6cj20X4eJRODxKZrl8qD9qEvC/uplO0lI8LP7U5Uy7gb3GeZ2Q7ctzrmZKH425GnyMoyzSij5MmBg7pjyH+YdUlwFlkw8qp+MndKv965CXYpsWl+PGBqt8X8MlqzYxN3W9If9pSPktm+1K7PD+Rvdmz4/ZybhDxSzwndxvbRQZEs69+pjmO5U2ctOWK7m5mrNL92HmvHUhkLZW6cU2ZCVukf+ryHiU1OYvQf53R2TXLiosvZ92XaXzCTTPBnSkycXztL13NyU359LT2SJh9x24/Eps+vTC54DZhYl3hN4nmsWbvSmLA7P2wvdbTzo5gT9RoqZCqJkNePHY+eToP1tmE1r9c4j0TmABhAYnMARlcTFPrHwAcD28HA2kH3IV7s19LNBkWHWM+tHmt7mNhstV3m8dZPUubVP07rNtlKJEtJd5nMwWbHiYdt0xWJzTGY0LcNSsiLReNQMrBW8H/IfbqWbkhs9odXJDbr2BmJzfw5yE1s8i7RrB0lxFXbcbPuiPoJic0Rdew6CwDqzl8AYKtjZCsK/uujHdu/wKeEpD7u13msc3KONO00d3qPESOTtlpui/Quxvrc2Xbk+x5Hdh4zY9Z7NPnI6r4Wi2ZM58fnjgUza9lt+fgGf5u3GRIbQIw7C2AADIABMAAGwAAYAANgYOsZQGIDiLceYtzx2PwdD9gUNgUDYAAMgAEwAAa2jQEkNkhskNiAATAABsAAGAADYAAMgIGtZwCJDSDeeoi37W4C5MUdMDAABsAAGAADYAAMbJ4BJDZIbJDYgAEwAAbAABgAA2AADICBrWcAiQ0g3nqIccdj83c8YFPYFAyAATAABsAAGNg2BpDYILFBYgMGwAAYAANgAAyAATAABraeASQ2gHjrId62uwmQF3fAwAAYAANgAAyAATCweQaQ2CCxQWIDBsAAGAADYAAMgAEwAAa2ngEkNoB46yHGHY/N3/GATWFTMAAGwAAYAANgYNsYQGKDxAaJDRgAA2AADIABMAAGwAAY2HoGkNgA4q2HeNvuJkBe3AEDA2AADIABMAAGwMDmGUBig8QGiQ0YAANgAAyAATAABsAAGNh6BpDYAOKthxh3PDZ/xwM2hU3BABgAA2AADICBbWPgSCQ2H7v5FxGcI0EDA2AADIABMAAGwAAYAAPHlIGYDxyJxOY//dwnAPExhXjb7iRAXtz9AgNgAAyAATAABsDA5hmI+cCRSGyiEti12TwgGHSwKRgAA2AADIABMAAGwMBhZ2ATuzUxnzhx3fXXh2uvuz5cc+114eprrg1XX31NuOqqq8Ov3v5r4arrbpz1b93sKtb/yH/8GJIb7Npg5w4MgAEwAAbAABgAA2DgGDEQk5qYB2winzg0iQ0rE7ehsHuDOwuH/c4C5AOjYAAMgAEwAAbAABhYnYEY72/i8TPOIeLx0CU2Ujh8/tmNZK+wI+wIBsAAGAADYAAMgAEwcNQZQGLz04D8qEMO/cA4GAADYAAMgAEwAAaOPgNIbJDYYFcIDIABMAAGwAAYAANgAAxsPQNIbADx1kOMOzBH/w4MfAwfgwEwAAbAABgAA1MMILFBYoPEBgyAATAABsAAGAADYAAMbD0DSGwA8dZDPJW94zru8IABMAAGwAAYAANg4OgzgMQGiQ0SGzAABsAAGAADYAAMgAEwsPUMILEBxFsPMe7AHP07MPAxfAwGwAAYAANgAAxMMYDEBokNEhswAAbAABgAA2AADIABMLD1DCCxAcRbD/FU9o7ruMMDBsAAGAADYAAMgIGjzwASGyQ2SGzAABgAA2AADIABMAAGwMDWM7CRxOYn/8PPbL0hkMUf/SwePoaPwQAYAANgAAyAATBwNBmI+chGEpvrbvgoEhtk+WAADIABMAAGwAAYAANgAAwcCAMxH9lIYnPVdTcG7NoczewXdzXgVzAABsAAGAADYAAMgIHDzEDMQ2I+srHE5urrP4LkBhn6gWToh3mgQTYsBGAADIABMAAGwAAY2DsGYlIT85CNJjaxsfgvbgNh92bvnIeBAduCATAABsAAGAADYAAMHHcGYr4R8w7OQfYksZGN43NK9mAH2AEMgAEwAAbAABgAA2AADOwtAxt7FA2O2ltHwb6wLxgAA2AADIABMAAGwAAY6DOAxCY/QgdI+pDANrANGAADYAAMgAEwAAbAwGFnAIkNEhv1bOJhBxbyYVIFA2AADIABMAAGwAAY8BhAYoPEBokNGAADYAAMgAEwAAbAABjYegaQ2ADirYfYy9hxDndywAAYAANgAAyAATBwvBhAYoPEBokNGAADYAAMgAEwAAbAABjYegaQ2ADirYcYd2OO190Y+Bv+BgNgAAyAATAABjwGkNggsUFiAwbAABgAA2AADIABMAAGtp4BJDaAeOsh9jJ2nMOdHDAABsAAGAADYAAMHC8GkNggsUFiAwbAABgAA2AADIABMAAGtp4BJDaAeOshxt2Y43U3Bv6Gv8EAGAADYAAMgAGPASQ2SGyQ2IABMAAGwAAYAANgAAyAga1nAIkNIN56iL2MHedwJwcMgAEwAAbAABgAA8eLASQ2SGyQ2IABMAAGwAAYAANgAAyAga1nAIkNIN56iHE35njdjYG/4W8wAAbAABgAA2DAYwCJDRIbJDZgAAyAATAABsAAGAADYGDrGUBiA4i3HmIvY8c53MkBA2AADIABMAAGwMDxYgCJDRIbJDZgAAyAATAABsAAGAADYGDrGUBiA4i3HmLcjTled2Pgb/gbDIABMAAGwAAY8BjYWGLz+Ovvh+c/3zHyU5fDt65cDo8jiUASAQbAABgAA2AADIABMAAGwMAeMLCxxObuF98P33r9TMdJ94Xn3/l2uPBUJ/EZKPb4698Ob754X6fd5e152R2d+/wr4c13Xgl3d2U5Ey5cGSRv3XoblHGL+iAeVkxmxyxFe67OU9f/e27byM+3B2MkcxI59MZRvDmg+JziMdnoW1c2M36mfXJ8OI9zUn+uOz52GI+lKT5vDHPsSNxJ7uP4WHFeKfP8OvVH84Qao1P6T12/MVwV2/PmApZhXVtwO1PHoRxxnlmyLs7Qe0oevr5f+nN/OO59HAYbw8YbYGBjic1V101MWMPJMdb9dohB2LJ/PKHWIK7W52uDtuWCed2NwQZv+rvWT1+7MVxFk+wy+VdJ9MbBxAaCqsV6sJ1l38nmRb/o+4Fvm8SVZPDa5T4mEpuFOhQ5NzCgev6hII5sMNIrcnQmXPBuAkQbKl41j6lfPQ6kXWv/HqMTMjljo6dnPE9jY+Bvj4VN+mBR/8qmOdjuyJ7sadjeQ2ZGNt6Pa4vsaNn+/H3h8Xiza5BYTyc2jq1pbNfd/5brKZbzGDF+b+w5MWe5etkxSm0M5Ml9jNiP+tlxXL47tijXIpczdNBj0Zf17s+foRuTXpJF9n/ncni897SGMz6Iqyn7X9cfi8VeRv/Gh07fKMNrKI5g4egysMHEJgc0ccJaMKGWSaozCdmJ3YfRBroy6HMWR570m8k1tlMnd5qAyx0z2WabBKXEptb15cwg5cBb6W5t1sjmBIxFNglo0rcsWG6Zti0lS8cXrU7aJnydFrtOv1wmHlPgVIMUeU373ejkBp6indkLXmp3Nd2lzcefk56JjVmLOslvWIp8KCZ82ycbpvEggxxtTynvqJ1aTo+Fel76jD/7Otoxym1s3gd+/9yfODY2Ndc8hmmcCtaasZL0mXr0lmS8snQXm9sWyWlXRlGml1x4nDX6CJvEa7PHVq43sNfUPOEyZ/pXXKu+HFu584a2kx5jSYeRnOqax1M8F31Espm+OvLo+SjqUXlT+o5sEX2l7GH8aP1MZc2co8oke0rZEsNVNh7/5UjyzdN5ar0qbUqZjP5uGVken7EbAAaOBQMbTWzSrs1golsBKjWRd+vboClOwjxJtxMyTYBxIs+BIgcZZXKNC847r5Q7juq8XIxkUEGTLPc5sYjkCV8vEq+Id5CSPiwfT9iPvygflUt66bto6VwNaO13sVCrIHlC3q7dY/tGZ7XYRD3M9dwWBQRWhmwXZW8qk/So9jL+Fr4kWykZRrrZdkdlV7xGAYMMYLNvJTuOfaN9or4um5LB/Ln6PMqZ+pDn+uPI8aEjz6QcwpdUVnxP/BqflT427wO/f8d/lpsiU5Q1c6vKZN859v9WGQfJnm96u26q/RTwVaYd+Up5TigkR7H8mXBBccTy2TGXz1uf0DixZefIscocz7JNBLpFRsNlZ254XuxoaMZNfWnLzmePG30u6WDHVZmDFSsDO9KcMLY7zY+Ws9fPpMf37HnxXcq2VmJDMk74SvRb5uziP2Z2Pitka8Wzb0Mq5/VN58Z25bUUR9+2sAvschQY2HBiMw8KmrTNBDaerPwJtk7iacGpQYJc1OJnGxDku1lyEu4sdj0nN5PwkiAhL9JVXsdutLCMFwWSQehgv5Pstp34XdTx9CP/TJRJ9aSdow7a1q48MkAxDFhZKie6XQ7ck/3aYGP+XWXbruOHhVxIHUh/j72ceJSAaE4fjd+s7TmQaMdKHCduoFSCg+lggHSZ8Bfr7vq9+17U5n3Adi/BVtGztQ2NBTt2n7osHv8RfNFY0nNJa5ekz5vvvN8fZ+TLy/4jhx0W2n5aVpPevTkj6aGYs3p3+ma/0rHhsJUjlqtj178+VSbqkub3LDfPRyRz1TH2Q+XMeSXzHL28MuTv2ldqU487pecs2zh+oLExPQandCq2YF1c+Tv+oLJ9GZq2cx+98yTrQp/MYVzZwOq3Cs9sKxyPxZ18xQ98fmR9vpHEhib3HDyUYN1OOgWiZYHMcOIsbabFovSt3vdJ/blBDi+WUVb+rOp2FoHSr7i+ZFKlsjpAagZc1361T1oIitzJBjXZy+WUXJ0yRh/yZ2m39tfIaG1FMsvgUQQFWed6Z1s8Q+31pfS3zFh/GxlLX1KW/ufKjWnH2KXVv18+jQkRKDQ+TzpU7vptUb+K0VhWB1hKttyXZKE/jgbtCP2XBB1UdpRMONc26QM9LgZ2ZZvykfTNfmlkvBwuxCD6HQ64U7utXZjVvl2TL9J7C0nv3rjktnjnTown4Zvk+1RW+lwxEcurMcWJsGC0abO1XatvWybeeLj7qfiSfxxzfZlpjLjJsvWBaIPYrt+Zaz6yztR248P+HFDXB7ZHsmc9b+rmOUvpUDiSdausJJv1AT+Sa+ZAZWejM+s4eXT66tahsqx761NrX26nd56u53moa0PPP5kH0t+7Lpmy+lF/fR1YZhxb/8ImsMlRYmAjiU0ySFqMZIDCk5M8RwuBmcRHBh1OnGUhtgthXIR4gqvBgeonToosh5wQeRGhSdMsZt5E67VR5OoMljzhS7so2Sho1S+N6usclMjkqKNnbiv1FctEu8iFt/2FJ/KRp6t7ju0sdRWysB3ZTo5tEieyHV3/zRdfmfhxCRM8sA+dvrQdRT+TZaV+o8/Ztlbfjs+V7rlMCgSMTpJXkjX2I20mZMo2Hwa5C/UlOd0gVPSb26SyVv993LGhAL7pv5WTWSDeTUClx2byKdkz2lbYoZ2fKlOuzQqber50bUZ+ZA54juv4nNrtXGNfWwYHdZbNAXqerLZLMvc4lHZnX+hjtSXvBqsgOT+a9eaL+eX2mT53bc02mnWsvlM62DFafM3sSX3SuWRnx2/S97ld/jEGZQNvTmY+ZRtTelFZR45cL8rp+bF3nvzY6M928I/ueBndwMl2Kb9kOuBZc+X3jzKwCxg4GgzsaWJDkNCEmSfFzuRJE5o3Qc84lybbutAkMOMCwpN0u5gUucpCKMrYybIsCLJNx/lLJlUqK5OS2B4HLjIps/0kOd3AVyUwsp7QLfer76Km63LRosW22Ea2ZT97NhkHM9MTR7VDSmiiH7MOLzo/9dr1V5WV9OHFvvizXi8yZVYnA4cOlxf+MN2lroGd6MP1OV83PiA5YkCbzs+ThwPguhNWdheK33UAqtqV/l5oB6uvHzjaMap1t20Un4z81b22xG7RJtV2sl83aIu2LLbydMqsxp+2J7vrtqNtpuesZBuv/zpX8vyW7Uh9mXONfYRs8dqsOuyneDT1m/ZlWf2ZxmBn3CgOxQ8dVFuJtoxNpY2oj+IbrtP6yOeTy/tHquPMIdQnn7dzkSPrt+KOn7EDsy91kb7p9e3xJfltduhG/qIx3+dHySba6Z0nOYz+SjbRxvB8lIvta+o0ftxEf6aPoWwoe2QfZYLf/XlwW+yy94lNHPw04aSgSgbQYyOlBenN1y+LQKJnbLt4xQU4T9LUtzNhq0Wo1u8uIqq8I0evH2/yy/bgBa21Q5KnF3Cl8inIKLtO3aBDBCOdfklnEdzRYt0ECI7OjW5Zbls392sDmPJdlE8LZd2hSbywP4UuuW+7sJLsJnAo/XTPO3w0us3Rf1CmY/vW984jQ1EWCjxkkMw2MX1SP++H+PI6B1ENZ1MsT10vtmn9EfXxx1AdY1pnvw1dxuhY+l/j/AwdLVtJpqgH8+L5QOuj25DlW3v0y7Z6pjEr7qJnv3f/SHK0mS1jv0/YlfrMY1XL2srH/ovlvMDUzjlcvhyjbO+k95Bo/HJwa8aBlkPbPrUlbZ7klHqU/qzuZJvBjYD87pzSzzJFbfCYzbK9eF/6W2m5/bIekl7MVZSzyq11rLYmPdguVv743diqq2spy/0nWafnTd8+RSelf5V7KIfSQ46RbD/xt/AauyzRV/WzimyoM9+PsBVstb8M7E9iQxMOT4I80Y8UzRNrnrSbCSwvCjVgkxNgbLcuCjKpaibqJqBOL1nXYJpl7h15IXCChtHE2cjv2aKdyJvBQe2wDMkGZVHh/lWZTptmQaDFWtim6Zfb5iPVfz88/3/xc/XCXk47jYozkd0AACAASURBVD+5nSgr+Tz7j57Tj7xUf6rFXOnm2dCwwP3Io9F9UldZd8lnktXu0nVkdmQin6ggptpEypzs8wr93QliIbal6uWAx/FLaSfWGV0vevs8kazdJFKwIcrUsdyxSelzcJ3s5rffjH3RN1+LMpD9nGuxDMsYyxTbNnYyNol+5zLKF3bOMn5RZTs6k748n6Z+m/Ev7abKL5yzzI2T7hiW/Zk6ha8ZYyH5gec2ltX6Nr/3JP6AcyPX/9/e+b7YcZz5/v4DSqJwiSJytb5EIcTrQHaXYC8EvFzdBKINZNaQWIvlF0YBR4FF+yLju0SZJZ4LwYZgsXd2xZgY4wg8V2AxJrbm2tjsICNhnMEoMOjV/DV1qR9P1VPVVX3OmekzM33mIxidPt3VVU89z6e7n29Vdx/bZ/F/sG2aGEdb9T7lcVS+JKFsy/VT4pNiKO0LT16AJL5828KHfLZ80PXJssSgjLesr326ssrfWRllQ7bezw43mYv+8PvLcdb3mdWljx3bbqzP+rI4zmS7GqArY8j3xCC+wBeLzMDchY0kOf6EJSe41glURpn865bjvbPhNi33piGXdPiLxdKly2EqtDzx2pOeb8NfRLoXl/wkKaPMPiH0Fxx14lQn1HThTG04QNxFrKdf+oIwxYW9euLWddjlok3n6/Liq2yX292yi4eMsKuLv6tHfZ94ANg2ZrigJB+2Ti7Jt7bsRnYLWr6tk7QXPnLx7+vLjLZP9EXRfiw/VcyDPzo2KRZj/ckPsY0oAP3xkOIsx12ZBKXvMcmy9WfMtGJk19fsKtuW/ctjVNbX6pBtc/ycoo9NTsNxV3+lc7c/juEV2399fqj5I5Xx+0zof3H8N891jhnfXna8FPsnjsp2u/vWfePLCXd1e/Iytk1XrjxvRc4LW5zN6Xye2+Hr1izXbHDr+s4JlbZbNtr2o09Lpgpb0yCb4sAd66Wo8X32fbOz16G8ileyR/W5bM/VnXzVjq9cd5VdmQ9q5xpto1yH81hVbczqzcu3Y+n7KILIxrcaw1n622NHr5/Yj9vPYODYMzA3YeNOPE6ElCfLdJLSFyBJktzI6GZ3lE225/vIiTHVKSc///IAv14utNkJq7wIue/2/mexVyUoqmw6+RYne3XRydqpHQSurL6Ylb9HIc9JqIvSpVtmQ41MikjJRiNr9aqRZmeXO/lLH0UcaVtC2zNc+KsXGUlYoj8lVhNG+Zy/ct926nd9sEm58k/Nz2VfK2U6dVfKTIznNPt0YpP80anf2S19C2x34pH7yNURGenh3tpq6+/Up+yZtD32Vx0jsq7ZT29T9/it1GHrcvUoTqX+qT99vdVj39YxRR/Tsa5849pvxcSWq/THtfUwzEZKXXV/WB79s2USf19+aX3LlLeZWfvyOAa7OseFtykvO62Pw76F8Kj7RvfJL5f+79p8xrR/2V76k8SD21/Z4uywtyvLLFvGtbVdbstMvwG2n2Pe7aPa7RyzNaYcwxLHrh9dX4Ld3eNCknd7TQp1qGMi2aN8nrUnYkXaF+4an5bRyrna9rPPX87/2XUp1Z+2KRt7jt9UXmyXgZd0HvD93qr+hEPHTtcnW0favxq3Hpson+KJL/DFWBgYTNjEk7Q9+YcTSu1kLY5x5cOFQvaN5V0iIBeicHHLypYnqvqJ053o5KJQnryyNgKw7sIQTqab6uSpyqaTr79oxmRD7ysX2Qmfsb/ZiwNC+9kF2toXLoy6ztqFtrAjtaEOyhAfEYFlmV6/lX4MdsUERrUf1xX7JB8qm7Iy2rdlbAMPzg+ti7b4quSkbC9nS9icy2fwS+nrblvSv2C7i1Wtn9pH9X61/D8xqVe8d+3TbXk/6z65Y7nDrt2njKPUU+9HJ0nJ+JB9ez4v2WcZgi9r9kzRRzkvyXHiR+ZTnfbHIeNofbSv65N63xv+CJyUsfPHpCR6co5arY6cVcva46X0gzpWYx9tOTmvhPNEaYtlwvlGymV9D9y6uvXxl/yWZuJlACf1y7cVyhYJaY0tu65mn7XR+cHZmNe3H7ZqPtXcu+OkZMr5YMss20/tq+h3LVga/QgxsPFxz5sGn5R9c7ZIexIPtW8WX30NyZZ1vMKxFWzt9DW00fa/Pq4brIudE+vSx3mIpfan2j8xrtov41K023+O022zjK9gYAwMDCJs3AXHnXDDSae8gM56InEnInlwtHKylYRFX4SLNvyFqLavB1Nf3Lz9cnGVJFIlKOrEmE7k6sRp23YXgHZ7GQwTLhZZ2aJfh7PN9326i6FKmNyFVPwXTgBunfi271Pvl3yr4xRv5ZCLWqg7JjbBr60ROs9EaYNud44nraliHvxu++f6NiVPHUb8cZgniWW/u99j8jJ1zHwdcT8ncls26+Sm4KtyvkjH2XAxyY/zeiKpy0SuxL/Cl/AnCX5r8ET2m+XTtdHy4UF8oX0+uX7vh55jQ3yRJcZJFLn9dVxb5bXvepjPzgPKn7adTpzs9lpdTRvyY8HW1z1XNHxR1JnZoo4jvz7FICtn7ZV6HFvhOiq+FT+6Mj52zj5Vti1sGnYrH7prSp+/FO/l9afl/zxeRX+kX5XPjl8KO/N6Jc4SP8219XX4bvsmPizqK/vD94OcY9gXfo4HA4MIm/I2CX9RlJPNhM/KSdPvr09SszpLndTUiay0q/8k6i9CKWlLNqSLnrpoqIvORLjDRaxW98R9VX8Wt6zEz14Q1YVcLlSFDw7OS4rt3Hw6Tczta603ZabS2uQZnE5gKhaD8O/nu6fPUycC7WPkYH6U+PfYWDBwsPamaKeW+IkNblt+O+d+7ekkbtIGn9XZqbqftYieIrZz8u3Sin6jZziWK9e71IcJ3PdcY+K1TSfwjkt9XujxRYdvb++kc4htt1um9H/5vW5Hva562eSz9vZ0nT5ILtGufxobKIP/YODwGRhE2BC4ww8cPsfnMLBoDPhkkgGPRYsr/eFcBQMwAAOHxQDCZk6jdYcVQNrhZAED42dARty7o9/j7xt8EkMYgAEYgIHDYgBhg7CZ4RYPDszDOjBpB9ZgAAZgAAZgAAZgYDYGEDYIG4QNDMAADMAADMAADMAADIyeAYQNEI8eYkYzZhvNwF/4CwZgAAZgAAZgYBEZQNggbBA2MAADMAADMAADMAADMDB6BhA2QDx6iBdxxIE+MZIGAzAAAzAAAzAAA7MxgLBB2CBsYAAGYAAGYAAGYAAGYGD0DCBsgHj0EDOaMdtoBv7CXzAAAzAAAzAAA4vIAMIGYYOwgQEYgAEYgAEYgAEYgIHRM4CwAeLRQ7yIIw70iZE0GIABGIABGIABGJiNAYQNwgZhAwMwAAMwAAMwAAMwAAOjZwBhA8Sjh5jRjNlGM/AX/oIBGIABGIABGFhEBhA2CBuEDQzAAAzAAAzAAAzAAAyMngGEDRCPHuJFHHGgT4ykwQAMwAAMwAAMwMBsDCBsEDYIGxiAARiAARiAARiAARgYPQMIGyAePcSMZsw2moG/8BcMwAAMwAAMwMAiMoCwQdggbGAABmAABmAABmAABmBg9AwgbIB49BAv4ogDfWIkDQZgAAZgAAZgAAZmYwBhg7BB2MAADMAADMAADMAADMDA6BlA2ADx6CFmNGO20Qz8hb9gAAZgAAZgAAYWkQGEDcIGYQMDMAADMAADMAADMAADo2cAYQPEo4d4EUcc6BMjaTAAAzAAAzAAAzAwGwMIG4QNwgYGYAAGYAAGYAAGYAAGRs8AwgaIRw8xoxmzjWbgL/wFAzAAAzAAAzCwiAwgbBA2CBsYgAEYgAEYgAEYgAEYGD0DCBsgHj3EizjiQJ8YSYMBGIABGIABGICB2RhA2CBsEDYwAAMwAAMwAAMwAAMwMHoGEDZAPHqIGc2YbTQDf+EvGIABGIABGICBRWQAYYOwQdjAAAzAAAzAAAzAAAzAwOgZQNgA8eghXsQRB/rESBoMwAAMwAAMwAAMzMYAwgZhg7CBARiAARiAARiAARiAgdEzMLCwuWCuv/2x2Xhny7y+sjRf57xw07Vj23rlhdnUXFf9Pm7++plrZvnGLXP90vR1nf3Ok+ax3oPgp+aVDx6ZB396ZB58cNNc7C07fbtd+9kXn8AADMAADMAADMAADJxsBgYVNmdfvG22d/fMzu6eufO7y+bpH1z0f08/ac6eXjUbYZvdXv97aNaCsDj73A3z2i8vtMXRylasY2PlIEG8aF75KNnz4PavzdkpBMjZ594wH/55zzz44A3z/Ddb7V82a/dD3fdvmaUp6uWAbPmS9bABAzAAAzAAAzAAAzDQZmBAYXPZvHYvCYRMuLikfhph85l57Zkz5qlfvhsE0iOzsdIQN4MJmzPmif/9cRRJO5+/a66dazvMw3Ql7+vnn5jXXni8IsIQNhx8k1hiO4zAAAzAAAzAAAzAwBAMDCRszptn1z8L4uCR+fCPW2bjnY/Nh58HofPRTfP06cfNX9sZnF+9ax7IrM5v/YzO1Tcfhn23zPLpM+apla1YZmf3M7PmRMNFs/x7W2/4+0j22TPbH6n1sv2dm+Z5mSFRIigTXM2Zo4ZA290zcXbo3E/Ny398lATRvTfM9d+VdigffP6ZuRNtC+V+v2qeFhv5rAhDDvIhDnLqgCMYgAEYgAEYgIGTwMAgwkYLkQfvrJonTp8x6ba0h+b1F8+HpPWCuR7FwCfmlR94yK7eFoHghc2p01ooWZHxmVl77kq6rWsqQSJ1nTGn5iFsnBB53DxvBd3nW2b5e2fM8mZbEFUFFbenIWYQtDAAAzAAAzAAAzAAA4MwMIiwufIHESaPzIebfjbivU9Dkh9mKtZWrpqrf5BZnT2z8+knYfblk/hczs69N9QD9hfM8mao99N3zbULBxA26kUDfsZHzaTsygxTOdtS/x5fVHDucfOYu2XtvHnsm164XXs7vCjAviwg/GlBI+viJy8UGATikzACQR8ZaYMBGIABGIABGICBfgYGETanfpUe5NeJvF7e/uOW+TDOtNgZmGvm9T/lMxzv3SjepHbuJbP2x/rD+UvrcitaeuGADXaaNVEzNh0VrJ592fXP9cwGShBdTnDJbFTN0aodZmcQMR0Oa8ywbrZjEX/hLxiAARiAARiAAc/AMMLmB9fM6//pRcqdVy+al+92l7fXL/tnZ/4sz8w8aa7+h8yK3DYv/+ziVG8jk8AdTNi8ZN6S5392+wRQ/UB5/vciqmw/H5q3/lfLdoSNxIvPOkv4Bb/AAAzAAAzAAAzAwDAMDCNs1EyJfbheZk30shU2p555w9z5YMtsvP2qWVKvf3bbZhzNljZ2dj8219VbzNL6PsGSv6Et3hqmbiHL131iXnlGOfzcRXPtthY3n5iXn1bbY18QNhyoNS5YBxcwAAMwAAMwAAMwMDQDgwsbffuZXrbi5YnffuLfIvbpbXP1BzfMnXBr2vabL4XfvLlgnlAi5dSLt82H//muuf7ck+ap535trv/m1fgnM0T2xQKv96y/9tyTlVugcmGj7awv57e7+SCcN8/e+MQ82PWvpL5olyvCSNdX2/7g7V9X7AP0oUGnPpiCARiAARiAARiAgcVmYHhh8/kj8+DP4dkZtby9fs1cD7eo6WQ/X84FRHopwWdm4x09QxLqj8/stL9XZ4OeeUM977NXFSRWhCTbPjEv/00NhPPm4k9+6m6hS7fGtW1J9akym6sImzjDVfMx6zgJwwAMwAAMwAAMwAAMTGZgcGGjbz/Ty9t3P05vPyvfGPZneYuYvuUrv41rOb4sQImCfQqbs/r1z9mb2LTD9KxO47a2c6vmrXsfm7VfXTFLK7fSb+y8s2Xu3Fd21n7DRn7T5ndXETYIGxiAARiAARiAARiAARg4IAMDCZsnzcsf+ES+9fKAHZnF+fR2+OHMJByqsyqXbkUhZLef/c6FcLvaRfPsf6jXRltx86cts/wj/2OfT9sfAVV/T32nfGvZeXMt/m7Onnlw+6UGRMm+ncYLBrRA2n5TCZRz+uUEj8xb/yw2PG6WXrxqnjpg0FDsWoCyDA8wAAMwAAMwAAMwAANnzEDCRs2uNGZRrDh57Cer5vovLgQhkYRDTdikW7vy29NOZaIhzYps//7KdG9VU4JpZ/eReeuXIjrKAyLZt/P5u+ZqRYykHxbVNp43ab0XTmdPnzFPvPiGeS+83vq934oPyjb5zkEJAzAAAzAAAzAAAzAAA/thYCBhIzMU/scu5cc5tz/aMnF5/ZbZaIie7NkT98yJEkpxhscGWP1o5+6e+fD/XI0zRVakvHdjgrg5d8Ws3UtiaOfT2+aKflmBFi8/uGneE3urv0Ejfd4zO2r7Uytb5oHsd++WeVbq/96r5k58xbT9HZ+WoALk/YDMPnADAzAAAzAAAzAAAyebgWGETRQB/scu5ZXL2TM2swgbNasSb/EqX7EsoiQTDHtm+51XzdI3a0HNRZEVU30zJ2d/cTsJFCVc4gHzYtouNp597pZ6KUFXvDz1m4+zOqPo0YKK5catgbWYsi7yCDdwAwMwAAMwAAMwcMIZGETYpGdN/EP2dWFz1fy1evbl6errni+ap//2caNvQ3v9hTPmsZ+8ajb0w/i7uWh46pfvxudx3OzPnx+aO2++aq788HEP+Devmtc+0m852zM7H90035fgv3Aze/B/452PzbY8E2RnXypvLktvbHtkXn/xjDl16Q3zod7n/sfmzj15KYJ8qtmi3T0z9e1zYiefnLBgAAZgAAZgAAZgAAZgoMrAIMImPlPy0U3ztPqxzp3Pk5i485vy1qv0DEv5jM33V7a8sLC3of3oppoFscLgM/N6fE4njdg/9YvbubCwguTzLbP8N2fM0u/s780oUWHXfy/teyrOOKkyqvx7N5YK56nb0OT5mx/lr5DObq9TdeXrH3JLGgdmwZbiEt/gGxiAARiAARiAARiYmoFBhM3ZH99wz4/ILVmP/e1F8/Qz6hmV3U/MKz8qE7a2sHG313zzsln+5WXXkSV5C9rnn5jXXgizMJUgn73wkln7IImpdKvZefPseniTmn2DmhY1rp4rZi2bEUoC58Efb5iL8pyMtGn7Fp6XSW9VezL+Tk/6Ic7PzB15rbN8vnnTvHxbfpPHPxfE7UQlG3yHCRiAARiAARiAARiAgdkYGETYWKeffe6Guf6CbvyCef5Xr5rrv1k1z18oZ2tsuavmlZDsr/3q4gQltmSuv/mGeb767Ixu0y/bt6+tvfmqWRIhYj/PXTGvvN2u4/svWlvt30vm2XDLXPdV0bqt8+aJH18zz/+41jddrrJ87pp57Z1b5mrVL5Xyuh8sT2AF/3EShAEYgAEYgAEYgIGTyMBgwuYkOo8+c9KAARiAARiAARiAARiAgePBAMKGGRBmQGAABmAABmAABmAABmBg9AwgbIB49BAzSnI8RkmIA3GAARiAARiAARg4SgYQNggbhA0MwAAMwAAMwAAMwAAMjJ4BhA0Qjx7ioxwZoG1GpmAABmAABmAABmDgeDCAsEHYIGxgAAZgAAZgAAZgAAZgYPQMIGyAePQQM0pyPEZJiANxgAEYgAEYgAEYOEoGEDYIG4QNDMAADMAADMAADMAADIyeAYQNEI8e4qMcGaBtRqZgAAZgAAZgAAZg4HgwgLBB2CBsYAAGYAAGYAAGYAAGYGD0DCBsgHj0EDNKcjxGSYgDcYABGIABGIABGDhKBhA2CBuEDQzAAAzAAAzAAAzAAAyMngGEDRCPHuKjHBmgbUamYAAGYAAGYAAGYOB4MICwQdggbGAABmAABmAABmAABmBg9AwgbIB49BAzSnI8RkmIA3GAARiAARiAARg4SgYQNggbhA0MwAAMwAAMwAAMwAAMjJ4BhA0Qjx7ioxwZoG1GpmAABmAABmAABmDgeDCAsEHYIGxgAAZgAAZgAAZgAAZgYPQMIGyAePQQM0pyPEZJiANxgAEYgAEYgAEYOEoGEDYIG4QNDMAADMAADMAADMAADIyeAYQNEI8e4qMcGaBtRqZgAAZgAAZgAAZg4HgwgLBB2CBsYAAGYAAGYAAGYAAGYGD0DCBsgHj0EDNKcjxGSYgDcYABGIABGIABGDhKBhA2CBuEDQzAAAzAAAzAAAzAAAyMngGEDRCPHuKjHBmgbUamYAAGYAAGYAAGYOB4MICwQdggbGAABmAABmAABmAABmBg9AwgbIB49BAzSnI8RkmIA3GAARiAARiAARg4SgbmLmyWN/fMzu6e2dlcXagEemn9oevX9vrlKfq1ajasD3b3zMaKAn5ly/vm/i2zdDqUccuqTFV4Neqrlp1U1+Ttrq9Nu8SWLbM8p/btASL+3unYcdms3be+fWjWLtX64rdnfj99xgiXcX0Wi3Y9NobTxbxWB+uO8mRH2/AHAzAAAzAAA4vNwLDCppIcSgLZJ2xi0hqSf5c83vfCwYkitb78flRJptg8XfuS/PcIm0uXzXIQS7aPMeGuioVGfdWykvgHgdnjS+3b1L60pYTDpVtm29bjxKps98JG/JL2H+YAanIktjR8JvaUgkjqi3ZW2D2l6na+CaJq6dJqEFNtn8Z6qzEZxiecnPEjDMAADMAADMAADCQGDk/YVBLqWvLnE1GbRIeE3CXPejkYH5LOWh1DBlgSYJ30T7WczVBJ8l8IFkmmd9Nsh+3/ZLHUqK+aRCdhk/lK2s5mQOplow+kT5LwTyNspGwl/m0/KhHl+lS3y8Y52pb1IwGuy2i/yn7RJ1V/5KwlcTTZnlhvNSa5fUPySl34FgZgAAZgAAZg4KQycHjCRpLiWqIXkl+beHaEjU6IN1d9Iru5qsoleB/7yap5/YNHJiWgadswAU4JbZmU66Q5tZUESF4+CJmY9Cdhk/bts71Vbz6D4JPrZHOWbFcT+f6ycX+xeyZhU4qVSv+kXnVbmQiQ3H97IcY9fsiEjpTbMsvSb81VZTmLp9gV62z4SQmt6Ksa76yb4vbNCh/4Db/BAAzAAAzAAAz0MHD8hY1LnkMiubll1vQtaiKWXnjDvPepSupjAjpgciTJbXjGQm5xSmJMku1am5JY+xmbpfVb/nmUWKcVNqmMT+L7xE4qOzmBbiThkuBnvirKRvuUb+3sUnW9LqNmpmLZgwmbKDSU3fHWPeFAP4uj1tXEogim6D9V71J5wEgfoq8KP6nynXrVtpodrKsdL6yDCxiAARiAARiAgdkZOB7CJiSVNsn0iaFN6lPyGEfrXbKakvr43M7Klnlw72Pz2j/fNHfs6HtMQJNDtBCZDRTVnppJ6NQnibFtv5NUpzpcIq3LlrMFFdu79hb19SbPFT+WbVa+x4S/t+7k366NYZuIAuW7WcqKUOgIG2WztlXi0o1BbqvUG/eVmGj/R9tz0bazeYtnbA7KBfsz4gYDMAADMAADMDAwA4MIG0kSowBRSefEdVYE9AkbJxJCch5vQdsz22HmJia8zjEh4dfJqV7v7OqbCcmT387D47P0Sz03c0rNxsREOrNritmMLPD7EzZZ27VEXolJXza0kwnKh2bbvYWsSPY7vgl+juJgij5WygpbMc6Z3ZaLPJ6ZsIn1eVt1/6XeuC6rN+cg1tnhKi/XFGxZ7NgHP8EADMAADMAADMDAPBgYRNgc1DCfOPrE1yec/c9C+CTXJrUPzcaKft1yS9ik1wXHBHmWZLMn6U19TzMjMVmObbSEiKxXSb9Nxicm0LKfuuUrtlUeKA27qn0qy2p/6mXVhtTTmaUKZaK4UH1s2VopKwIkxk3aEx/Z76rtKELUOqlDx6Wzrqw32ph87US6bTfa2SPuxL5Yj/IZ6xihggEYgAEYgAEYgIHBGZiDsFk1GyqpkwQyJqY2iJIYhnIxGdWj/ioxTeIhCRSbZOpE1ZdpJN8HBaeZ9OpktRQFeluRHEfby33S95Ssq3XaP33Lyv+nOrMwwa5qn1Jb3rfhu61PYlbERWKXxVf7W/Y74K1onZk/a5P0QdUt9iT/ye2NlpduHDr1Rr96IRbri+utmNGzRKXPdNxZ1scuy/AAAzAAAzAAAzAwTwYGFjYpyZPEsitsJLnUyaEKsiTCvc8xNPaVW76yxF7VrRPuWZZjAt0zQq8S3yi4pC+1ba795C+7j/gqf0YolWmKh9CXmIRn/U/7t5P4br+kD96m9MIAa0O0U/WrU7cIoOiDeczYqL6F9qIPpP3am8qiTYojiXHmOxHKD/3v9ty/5X5raHt91SzFHwNNNojP5nnAUvcAx/Msxz5lBx9Ng2EYhgEYgAEYmBcDgwqbmPBWkkqflE8QNTaJkKRT6rDfQ0Jpk+eU3PuEMn23kEgiest03mx1kASlmvSWUPYluNLv7ixT9JmIhCyxtm2kevO+lu2r2aysjkbb1T6ltiRJ90LhoVlb3zLW/0mAWaHi67Z2+XJJAImwjfFUsypNmCX2qqz4J/a9tFu+h32mETZSZyYgpR7tu2DPxnr4QdK4LfmpI+hCHKO9B+GOfUmqYQAGYAAGYAAGYGBqBgYTNjFZFEESgiDrtze3/Kh3dhuPSs5DYhmTSFuPJJu7D83G5kOXWO/YBDYk2faWIPtDnilRbgsbSXj3lXCKHTGxVXZH2FKyK6KgY1e8BS3tL/5xCXK1/lTvJNulj1nCXhELzq5qn1Jb0gep07+swc+6eJuPibBRws+KKbE3Cqtyxib6Q4vkM4m1LAbWH0qsZdskhl2fpbhLGT7xCQzAAAzAAAzAAAzMm4FhhE1IkmuJd5a4F6JHOufKyLaQeMpbzyRBjQmrzGxUBVJL2KRZi/z5iCkBExEQ2+7euqVH7kUUSP/iTFIpbFSSre1a3tS3baXEuebf1EZjxibarm67smJM1mfJemor9kFi695C5+s4XsLG90V8EzkRnkph44RoECxRlLb8ccYsr6ymWcTMV8JOxWe6XpbVwIP4jE993LIMDzAAAzAAAzAwDAPDCJtG8pZETZFUN8q7oIqwWZeZmJQ4uluh5LagmYRNSvolAT5cgJKw8oIh75OIXACNLAAAHy9JREFUonybiJtUdpLtMamPCXjaVwRi7HdV2Iid0naCLMby/i2ztmmF3awzNv1iUHzgP1P70m7se9Xurp2xfCYei1maPg71Nqkj+jW1p28VjGJQ78sywgYGYAAGYAAGYAAGDoWBgYWNSqTt7EY1EdRJYWU5JK4uSZQk1t5ytu5vRXPrJdGsiptKnfuGSRL9WZJyKavFnNSTxIAXBsFW6af1l/Qt+q7w6TSzRnFfW7/fv5N0qzaXg2+juJDZDrGlmGk6ihmbaJv0P+ujxDz5yvc3fJeyqj+d+qTe+JnEVXxOyNWT2phUR8fn++ZQ+sdnFOb48lAuEPibYw4GYAAGYGBMDAwibOJMgU0KJYmcMfGQkXmXLMZZgfSwvbSRksUgFiQJn7G9wwmSCJogdvpsFaHhEmuVVKtnSOIsRKOv4qP9xmBanyRhUxzsSjhEW+M63adiP+lPpaxwEesTPwln8j0KEjUr4+rTArPRrrTf+hS7pM1WOdaTbMMADMAADMAADMDAkTEwiLCZNiGm3D4Taw6QIztAYBZmYQAGYAAGYAAGYGAcDCBsEA2IBhiAARiAARiAARiAARgYPQMIGyAePcSMooxjFIU4EScYgAEYgAEYgIF5MoCwQdggbGAABmAABmAABmAABmBg9AwgbIB49BDPU/lTNyNLMAADMAADMAADMDAOBhA2CBuEDQzAAAzAAAzAAAzAAAyMngGEDRCPHmJGUcYxikKciBMMwAAMwAAMwMA8GUDYIGwQNjAAAzAAAzAAAzAAAzAwegYQNkA8eojnqfypm5ElGIABGIABGIABGBgHAwgbhA3CBgZgAAZgAAZgAAZgAAZGzwDCBohHDzGjKOMYRSFOxAkGYAAGYAAGYGCeDCBsEDYIGxiAARiAARiAARiAARgYPQMIGyAePcTzVP7UzcgSDMAADMAADMAADIyDAYQNwgZhAwMwAAMwAAMwAAMwAAOjZwBhA8Sjh5hRlHGMohAn4gQDMAADMAADMDBPBhA2CBuEDQzAAAzAAAzAAAzAAAyMngGEDRCPHuJ5Kn/qZmQJBmAABmAABmAABsbBAMIGYYOwgQEYgAEYgAEYgAEYgIHRM4CwAeLRQ8woyjhGUYgTcYIBGIABGIABGJgnAwgbhA3CBgZgAAZgAAZgAAZgAAZGzwDCBohHD/E8lT91M7IEAzAAAzAAAzAAA+NgAGGDsEHYwAAMwAAMwAAMwAAMwMDoGZiDsLls1u7vmY2VirK7dMts726Z5RGBs7T+0Oxsro4+0Iw0VHgcEYfEj/jBAAzAAAzAAAzAQD8DcxA2Z8yplS2zs1uIG7fuoVm71G/Q8uZeJiSOWljM1v6q2dit9NH2/f4ts3Tai77DFErO/ppNRVK/vFmxO9irRepEf4TY7xy1gB1ERDfiWfhukJOMtdcx0jo+DtGWefSPOhkcgQEYgAEYgAEYmDMDgwgbnzzvOTFjBc1Mf9lsiE3eckE0MZEewkEuCZ7R7tBPnfSfOt1IPmPSetksXTpjJosN74fMj9ZPUTQkW/P2i6RY9yvzc1Hu9GWztC7iS2/rzr5V45HZpWbkdPs1LqJNlf7WynfW1cSYt78UyPsTH414VpnbRx8KIVP6Nv+e25JvO2NOTfJ1x3f5cbY//2hWWMaHMAADMAADMAADR8vAIMKmHcQ8GWuXC05wCXKerHYSuGpSOQ8nets3Nh+anfsPp7yFrtFfl3SqhL/TB7tfEivb65eNFknRB84/Uk+jrVh3qNOJB7/cK4JOnzFdMTClsJE2M/sk2RZ78xjFPsm+zU9vu/dJXkfkKRNWyY+ZMFT+zdZHcVWre5KP9T4NH1vbCgFj7Xb976y3/k785z7Kbcm3ia/TvtE3Nb8GEZTxUPqwY5sIcuXfqu+8H6KPq2W6dWW21GxmHaN8MAADMAADMAADExiYr7BpJHX1pCvcptVKQCvr55UMuaQx3EqVEkifsNUSbF9eJXzB1lg2Cpsi6dvdM6WIseKiXBdtcMmnFwpxXTXAwZc6OXX7Tkh8rZ1un66dMVHN4lCIFmWfi3HstxYAfrnffl2+7fc6R0Gg6b5XfaTbaC1P9kNi0JdN30OdjWPA9T/Y6JYzv+45MbRsn+8q1+vvWjQ4X0+Ir/jBlc1nbJbWb6ln3yr8WOG7bm+nFF8F32gb3Iyl8GvL1WPnBPQg8RFb+GwdC6yHDRiAARiAgZPEwIDCZkZhUiQ2PrkrEmUZ2c6Sp/kB6hKuKDZ8O2UCHpPQqk02kQvJZUge88S02z8PW9rPC5tb2QyOq8O2F4WD93UniXZJZ0g4C/+6dqYRNzFxtf3vtlP6w9Yrfuv0teoDJQBLH1btqyfH7YPUly994/1qZ8Jm4SfFZfJ+9XZdzCqxcH6srJ/cTp1Lfyva/oVNp93IWttfZR/K767Osh77fZp+u/1y8dWxcaZYtvtBvfgGBmAABmAABhaDgcGFTZyl6Es6OsmNTaDrSVktkR4aPknMNzb9Sw/yBF0l4nq0XJaz5LyVCFfW26Q/7pu2pwQ8rYs+kCSx478AowiJWG9l9mKmhHE6YSPx8H5U4s3Zo74rJmKf1Dov3EoOrB/0LED/gVdNroP4mopNbU/rmamsjNjj7ZyJHUnws3imuItfp/p0vi59J7YVn4GTUvxl7Qhr1b76+nJfe1Y6Ps7sapSptTETp0X/avWxbkZRj0+z4wF+4AcGYAAGRsHAMRE27YtoNQGeF1xZgtmyqS85y5PblOTZfXTS6culxDIls1HYKFEQfRCSzY3izXH2AuzKFC9esOud2JAEOvot2BkEkBckXsAlm23/fV+TnaEdJZzSxd+XPdDb0Fz/tJ+sDd7W3K5GbHoS9ujX6INGHdn2FJfUz9Z+3k7tK7dPg6lMFOjkX+LufDFBVFtxLbHVdWR9qNjb4yffzyl83qmj0f8QP+8X8acvG0VglaeK3ZP6xfZRXHQmH0vEHh/BAAzAAAzsj4HBhU1MVmRGo/UpCZlKyqfeV9U5VcI7bcIzbTJZzCBoYbAjt6JlbWqBUEsAJeHzQsT1SRJc8Y9N/px9dgYkiAgtTJQ/9cFQFzYeFi+GZEbF12nbFpE0TTyi/0Oia/u/fd/XmfulnqRnQsD1ry5sqrZkCXEurKZpO4oCFyvZv25np/2Ov2txDa8+75QNAjGuV/taH8T1+qBOjOj4xmXn/9J3en+13BEldpvuf6seb6f3hXAj9ao+ZOyr9ZERva/fHjnK9pW6+Yxxxj+INxiAARiAARhoMjC4sJkqQWkmbyGB6SRpKeme6wV+kl0OpD5bbJJWTwptor29uWW2K7Mq+g1ortz6pGdspn8Llkvwq4lymSzW+tVd50RPJih8Pc7u+/Zhdyts1ExCPPh8XZmQiduCLT3CZhJXSYzppDn10fu17xmbKewL9rq2Oj5txL7BVF5Harvl39azOvF46Bwzqe+xjPi7Kmx0eW9P/+ybFyRJhPnv3fiq9Y12fezqcevYLn3gs3lSx2eaZZbhAQZgAAZOEgODC5vOyLaaXcm2dRJDBZ5LcHWi4xOtScntgQPXSELzevtsaSS3NglzfWo9DJ32Swl4WheT3cIvqazyXZHw2TIp+WyXkxH7zMeVZDnakrUTbLW/hePeJmd9VAo877du4qtscv0r97N1T3jGRhJm94yU5ibVPdlXU9gX+ux8UPIbbMgYb7Ev61UdYp98yi14/fUpX1VilXObfCG/edMbi+wWMrWvjnvWZuO4yMr4WHbaLbhu2q3bZhlhAwMwAAMwAAMwUDAwuLDJEuOisZiw2ERGJXVxfSjvkvFsVqCeNNWT7EYS1rJFr3cJ1nS3ItX7mcSI7pPrj0tmVSIqt5g5P/iET5JYV7fyUexnkQDG9boPxbJru8fXyc6uj2sJfK3NuK6wT8Sc9KvzWdrl9s99JAl+3d8+1raPLlku21e+sGX66hBh10m6VR3iq5pf0m2CBX/WprKfWex9ee/DW2btvohfJQJUHakfBWuZgChsKPvgyko7rbKq/XJ/+V606VjLjtvyVrwuY9anVX9KG3xy0YIBGIABGIABGJiSgWMnbFySE35DRhJJSTrLxNQng6tZsKvJ1ZTOmHi7j6unnpx5W4tk0yXae2YnJHtlApdsLfYr3uIVy2WJe58dKVl1+1YS6+RbKVvUF2wvE/26z8MsSWaf1Cufvv6yvswOt//swibW0dO+9UPJT9xPxbXXvsBRGUdbT9PP1qaK/zt1uHL2h2Cl/0pYqDpSPwpmCpGR901iED47wmbVbBSCxPVHH4eXbpkN98OxUpePZ9a3Wr3lrZcuRtJHuaWyIrJcucr6aY9lymXnxV4e8BW+ggEYgAEYWBAGBhc2nVF5ue2m/Owkez6Ra93XnxI6SazUg/YxGCoZjOtS+flf3FOy2UkMnT0hGXRJZE+inyV/vpxLykOyl3xcv+1K99PZ0fF1xSdSt7KtJgRqwia25+po2dTTX4lV1m+x0ce0ZktsN9u/3n6Nn3z/KewL7XRESSehF9vLGYu0vurHUI+L7+aWuwXPCS3rlxDD1I/EmuuH3rc81hrfk4jzfU9c1W5f9HHIyhRiqGZHaiP1vZzJ6ytT3Sbx5pMLMQzAAAzAAAzAgGJgcGEzdQKqkm0vAiaMzkrinSVpRRLrkrtinepsnsimRMslmVm9092O5hPQVSPPLLjvql/19nQSWbE1JKjb2QsEwgh3r3BI/dHtTiNsfP9tG8G2WsI6hR+z27Gq8ar49f7/M//Xvmxgv/7X/g7+WVu3LzGYss7YVx2XKfZV7VZFivjL2hTKlpxJ0i78e5uFCS8kXBlVR7+wUTMh0n7tMzAm7WteWK4fR/gFv8AADMAADMDA8WdgQGFz9J3tTTBrCd4xXNfbh5C4L89g97TCRie5ZQLeJxIyIbsP+wY9SRyofS9stB9atjn/KGHTKnew9UrYFPFO8RERJLd0IWwO5vOjP4dhPzGAARiAARiAgf0zsFDCBhD2DwK+w3cwAAMwAAMwAAMwAANjZgBhU4yGjzmY2M7JCAZgAAZgAAZgAAZg4KQygLBB2PDQGQzAAAzAAAzAAAzAAAyMngGEDRCPHuKTOipBvxmRgwEYgAEYgAEYgIHEAMIGYYOwgQEYgAEYgAEYgAEYgIHRM4CwAeLRQ8xIRRqpwBf4AgZgAAZgAAZg4KQygLBB2CBsYAAGYAAGYAAGYAAGYGD0DCBsgHj0EJ/UUQn6zYgcDMAADMAADMAADCQGEDYIG4QNDMAADMAADMAADMAADIyeAYQNEI8eYkYq0kgFvsAXMAADMAADMAADJ5UBhA3CBmEDAzAAAzAAAzAAAzAAA6NnAGEDxKOH+KSOStBvRuRgAAZgAAZgAAZgIDGAsEHYIGxgAAZgAAZgAAZgAAZgYPQMIGyAePQQM1KRRirwBb6AARiAARiAARg4qQwgbBA2CBsYgAEYgAEYgAEYgAEYGD0DCBsgHj3EJ3VUgn4zIgcDMAADMAADMAADiQGEDcIGYQMDMAADMAADMAADMAADo2cAYQPEo4eYkYo0UoEv8AUMwAAMwAAMwMBJZQBhg7BB2MAADMAADMAADMAADMDA6BlA2ADx6CE+qaMS9JsRORiAARiAARiAARhIDAwubE5/5b+Z/3r2v5uvfO3r/OEDGIABGIABGIABGIABGICBwRmwesPqDi3sBhM2X/jyVxE0QDs4tAhkBghgAAZgAAZgAAZgAAZaDFiBY3WIFTiDCRtmaQCuBRzrYQMGYAAGYAAGYAAGYGBeDFgdMpiwsdNA8zKUejkIYAAGYAAGYAAGYAAGYAAG+hiwemSQGRtmawCtDzS2wQcMwAAMwAAMwAAMwMA8GbB6ZBBhM08jqZuDAAZgAAZgAAZgAAZgAAZgYBIDCBse+Oc2QhiAARiAARiAARiAARgYPQMIGyAePcST1DvbGeGBARiAARiAARiAgToDxphBcsFJ9UzaPkR8EDYIm0FgHgJG6qifcPALfoEBGIABGIABGJgXAwcRHHpfvVyzddL22j6zrkPYIGwQNjAAAzAAAzAAAzAAAyeUASs4pv1XCg27n6zTy7JOf07arsvudxlhc0Ih3i8w7MeIEQzAAAzAAAzAAAwsBgMHFRt2/9Y/y4j9J6zoZVk39CfCBmETgRsaLupbjJMecSSOMAADMAADMNBi4IdmZeOuubt2df751M/+3dy9u2FWvt+yZbb1IjSc+pjwXy3+sr9sK7/b9XqdXpZ9hv5E2CBs5n8g4mN8DAMwAAMwAAMwsJAMjFPYaJGhl2tCY9J22adWTq/Ty7LP0J8Im4U8yGZT7ENDRX34HwZgAAZgAAZg4GQwME5ho2NjBcekf7q8XZ7ln+xr95HleX0ibBA2c4dsXvBSLxdNGIABGIABGICBo2VgMYRNnw+nFSS1cnqdXu5r7yDbEDYIG4QNDMAADMAADMAADMDAvhjwwubtlR+aK2t3zd274W/jZfN3RX3Z9rt3jd0nT+Kvmn+T/cNnVkaesfnZy+ZtVe7ffnYwcWsFx6R/uZ319mwdZTm9Ti+X5Yb6jrApoBvKsdRThx6/4BcYgAEYgAEYgIHFYSDM2FihEV8g4AWKFiV/t7JhMgHiRMpdtS4JpKZvwj537/67uRLyV1vv3YqIatbRk/fuR3jYfVr/rA32n9iil2Xd0J8Im54AD+1s6uNEDgMwAAMwAAMwAAOLxED9VrTJgsOLnyR2Qj19IkVmbPRb0dy6JHT2y1ZLnMj6Vr1arNSWa+tadQ2xHmGDsIlKegigqGORTtb0BZ5hAAZgAAZgoJ+BHmGjZla+8v389jG5ZS0JG+vnUJfcZlaKnDkJmz7xooVJzQ96e225tq5Wz1DrEDYIG4QNDMAADMAADMAADMDAvhjoETZRmHRvTfvK18oZm1JAVmZwBhY2VnTYfyIq9LJdV36XcvpTl3E7hPr0eilfWyfbhvpE2OwL4hI+vg8FJPXAEgzAAAzAAAzAwHgYqAibMDuTZmO6wkZeJJDKdGPeuZ1tYGFT87GIk2lFiC4ny/JZ1t9aX5Y7yHeEDcImKvWDgMS+3RMSPsEnMAADMAADMLD4DIhIkdvL7t7dMCv6OZivfd04kSK3mLk3ol01Kxv65QFe/KQ67NvVimdn5iRsrOCQf5pXWWc/9frWcqucrJfP1v5DrEfYIGymgnUI2Khj8U/uxJgYwwAMwAAMwMDxZ8CKDPk3TbykrP1sld/vtlZ9+1mPsEHYNAHdD1Dsc/xPZsSIGMEADMAADMAADCwiA8dO2PzF+b8033j8r8y3vv1d/vABDMAADMAADMAADMAADCwgAzbft3n/kALr2Aibr577BoJmAaFFoCLQYQAGYAAGYAAGYAAGWgxYgWN1wBAC59gIG2ZpAL4FPOthAwZgAAZgAAZgAAYWlwGrAxZG2NhpKGBdXFiJLbGFARiAARiAARiAARjoY2CI29KOxYwNszWA3gc62+ADBmAABmAABmAABhabgSFmbY6FsAHUxQaV+BJfGIABGIABGIABGICBSQwc9HY0hA0P7HMbIAzAAAzAAAzAAAzAAAwcOQMIGyA8cggnqW+2M0IDAzAAAzAAAzAAAzAwiQGEDcIGYQMDMAADMAADMAADMAADo2cAYQPEo4d4knpnOyM8MAADMAADMAADMLD4DCBsEDYIGxiAARiAARiAARiAARgYPQMIGyAePcSMwCz+CAwxJsYwAAMwAAMwAAOTGEDYIGwQNjAAAzAAAzAAAzAAAzAwegYQNkA8eognqXe2M8IDAzAAAzAAAzAAA4vPAMIGYYOwgQEYgAEYgAEYgAEYgIHRM4CwAeLRQ8wIzOKPwBBjYgwDMAADMAADMDCJAYQNwgZhAwMwAAMwAAMwAAMwAAOjZwBhA8Sjh3iSemc7IzwwAAMwAAMwAAMwsPgMIGwQNggbGIABGIABGIABGIABGBg9AwgbIB49xIzALP4IDDEmxjAAAzAAAzAAA5MYQNggbBA2MAADMAADMAADMAADMDB6BhA2QDx6iCepd7YzwgMDMAADMAADMAADi88Awmbewuaf/mDuvP8H8/Oh23H13jN33vd/N/7pEGD9hxvmrdCea3fjhvn7ofv17e+an988xD7NwX5OnIfAInFjQAIGYAAGYAAGYKBgAGFTOGTwpHRewiba/S/mxvv3zPyFjW/nrdV/nPtBNHdhUwq09++Zsl9/v/p+FI1ePL5v/vUfugm72NpX5lvf9r4TEXrn5r/M3YeDcxx56/qAtvAJDMAADMAADMDAcWAAYTPvhG1RhM3c+3GEJ4QgdPrEoRc6+cybFzVpnS9TCKAws9ZX93E4EWDDEfI373MQ9TOQAAMwAAMwcEIYQNjMO9BzFwSHNGMz934cZWL5j+ZfN7qzNlmy78SPEi1VMeTrSTMyhxSbeTNM/VwQYQAGYAAGYAAGRsAAwkYFqXv7URqNl9uJ8luWaolrcduReyZF1/Nd863OrVAqYVb2ZIl1c33NhiQS8lul7pk75XMxvbaERF0/V6OWh56FyP1/EJ9813wrzJQkkZF80vGrK9vfnvOj9l1F6EX7pVylTKftZlx77GUfLi4wAAMwAAMwAAMw0GEAYSNQTExCvYDoFzaVMmW9lZH+6i1MYtfEz7awcfVKkl2rZxZbyn7U6htqnbOrX2hMFAjO3numKWwKQVcTaVGoVMRp7tsgADdumJ+7Z3O8kJUyft0hv+hhqFhQT+ekOZE9fIbPYAAGYAAGYOBIGEDYCHghEa4luD6RqYiW8FC47COJbPamsEIQdEb+XftT3AoldnY+Jwib99sCYSZbin7Mntx5O+MD9FYstETXEMKm46e+GZBgW99D/QUfMda19eEteK5M+WICV74dk9n92tcvtuFPGIABGIABGICBk8MAwkYnwCFJleRbBIs/ICYLGycUyuTY1ZluRauW+Xb5bMYsALaFjbVbkuvaW7tmsqXox1xPEocubOTWtRSnWv8yfwkrhTiLgkd8X2z/Voh1PvM3S7wpW4sN6+ACBmAABmAABmAAYaOFjV4OiWsSN5OFjU5q48FVCIIsOY7tzWfGJtoQ2vEiJ80WzGRL0Y+y7kG/H4GwqcYuxseeKIoYhVvZEh+VMlWf1TjiRDQoP1nc8C2+hQEYgAEYgIGTwgDCppkElTMh5ayK325nQmJy6xLZJBziA+z6BzpdGbWPjOzrMk2bagdmaWetTFhXCoZZbKkm6T1tzdSHop7Szv3UFfrWfMZG1xlESt8sSikK7QnCCUMVN19Gz/oUYujAsS78pPvA8pHcy3tSLhT0k2MPBmAABmBgDAwgbEJC6JPS9IC3FSydRDckwOlWNZ+4RmETE9dQj70Nye2jk1257Um3VWyfIkn1SbWuIyyrW+FqZbStDlARAPFtZw1b5i5sgnCMdqS+deIwhX+iqFT+iAdkp89KjIa6O77r3FLmT3B5uZrvkgD23NTKcLKMsZkmtpRBxMEADMAADMAADFQYQNhUnEKSRaINAzAAAzAAAzAAAzAAA+NiAGGDsEHxwwAMwAAMwAAMwAAMwMDoGUDYAPHoIWY0ZVyjKcSLeMEADMAADMAADMyDAYQNwgZhAwMwAAMwAAMwAAMwAAOjZwBhA8Sjh3geip86GUmCARiAARiAARiAgXExgLBB2CBsYAAGYAAGYAAGYAAGYGD0DCBsgHj0EDOaMq7RFOJFvGAABmAABmAABubBAMIGYYOwgQEYgAEYgAEYgAEYgIHRM4CwAeLRQzwPxU+djCTBAAzAAAzAAAzAwLgYQNggbBA2MAADMAADMAADMAADMDB6BhA2QDx6iBlNGddoCvEiXjAAAzAAAzAAA/NgAGGDsEHYwAAMwAAMwAAMwAAMwMDoGUDYAPHoIZ6H4qdORpJgAAZgAAZgAAZgYFwMIGwQNggbGIABGIABGIABGIABGBg9AwgbIB49xIymjGs0hXgRLxiAARiAARiAgXkwgLBB2CBsYAAGYAAGYAAGYAAGYGD0DCBsgHj0EM9D8VMnI0kwAAMwAAMwAAMwMC4GFkLYfOPxvyI5R6DBAAzAAAzAAAzAAAzAwAllwOqBhRA2f3H+L4H4hELMSMq4RlKIF/GCARiAARiAARiYBwNWDyyEsLGdYNaGg2QeBwl1whUMwAAMwAAMwAAMHG8GhpitsXriv5z+8pfNl05/2XzxS6fNF774JfOFL3zRnDr1BfM/LvxPc+r0man+Dqqu7P5fPfcNxA2zNszcwQAMwAAMwAAMwAAMnCAGrKixOmAIPXFshI10xk5DMXtzvFU1ox7EBwZgAAZgAAZgAAZg4CAM2Hx/iNvPREPYz2MnbLRxLH99EPWKH/EjDMAADMAADMAADMDAojOAsPkakC865PQPxmEABmAABmAABmBg8RlA2CBsmBWCARiAARiAARiAARiAgdEzgLAB4tFDzAjM4o/AEGNiDAMwAAMwAAMwMIkBhA3CBmEDAzAAAzAAAzAAAzAAA6NnAGEDxKOHeJJ6ZzsjPDAAAzAAAzAAAzCw+AwgbBA2CBsYgAEYgAEYgAEYgAEYGD0DCBsgHj3EjMAs/ggMMSbGMAADMAADMAADkxhA2CBsEDYwAAMwAAMwAAMwAAMwMHoGEDZAPHqIJ6l3tjPCAwMwAAMwAAMwAAOLzwDCBmGDsIEBGIABGIABGIABGICB0TPw/wE6157FpJ4AwwAAAABJRU5ErkJggg==;" vertex="1" parent="1">
          <mxGeometry x="570" y="300" width="822" height="514" as="geometry" />
        </mxCell>
        <mxCell id="Z-S8mM7DxkfgQYMTvlX1-10" value="" style="edgeStyle=orthogonalEdgeStyle;rounded=0;orthogonalLoop=1;jettySize=auto;html=1;" edge="1" parent="1" source="Z-S8mM7DxkfgQYMTvlX1-7" target="Z-S8mM7DxkfgQYMTvlX1-9">
          <mxGeometry relative="1" as="geometry" />
        </mxCell>
        <mxCell id="Z-S8mM7DxkfgQYMTvlX1-7" value="&lt;span style=&quot;color: rgb(171, 178, 191); font-family: ui-monospace, SFMono-Regular, &amp;quot;SF Mono&amp;quot;, Menlo, Consolas, &amp;quot;Liberation Mono&amp;quot;, monospace; font-size: 16px; text-align: start; white-space-collapse: preserve; background-color: rgb(40, 44, 52);&quot;&gt;sudo systemctl stop mysql&lt;/span&gt;" style="rounded=0;whiteSpace=wrap;html=1;" vertex="1" parent="1">
          <mxGeometry x="220" y="550" width="220" height="60" as="geometry" />
        </mxCell>
        <mxCell id="Z-S8mM7DxkfgQYMTvlX1-12" value="" style="edgeStyle=orthogonalEdgeStyle;rounded=0;orthogonalLoop=1;jettySize=auto;html=1;" edge="1" parent="1" source="Z-S8mM7DxkfgQYMTvlX1-9" target="Z-S8mM7DxkfgQYMTvlX1-11">
          <mxGeometry relative="1" as="geometry" />
        </mxCell>
        <mxCell id="Z-S8mM7DxkfgQYMTvlX1-9" value="&lt;span style=&quot;color: rgb(171, 178, 191); font-family: ui-monospace, SFMono-Regular, &amp;quot;SF Mono&amp;quot;, Menlo, Consolas, &amp;quot;Liberation Mono&amp;quot;, monospace; font-size: 16px; text-align: start; white-space-collapse: preserve; background-color: rgb(40, 44, 52);&quot;&gt;sudo systemctl start mysql&lt;/span&gt;" style="rounded=0;whiteSpace=wrap;html=1;" vertex="1" parent="1">
          <mxGeometry x="220" y="690" width="220" height="60" as="geometry" />
        </mxCell>
        <mxCell id="Z-S8mM7DxkfgQYMTvlX1-14" value="" style="edgeStyle=orthogonalEdgeStyle;rounded=0;orthogonalLoop=1;jettySize=auto;html=1;" edge="1" parent="1" source="Z-S8mM7DxkfgQYMTvlX1-11" target="Z-S8mM7DxkfgQYMTvlX1-13">
          <mxGeometry relative="1" as="geometry" />
        </mxCell>
        <mxCell id="Z-S8mM7DxkfgQYMTvlX1-11" value="&lt;span style=&quot;color: rgb(171, 178, 191); font-family: ui-monospace, SFMono-Regular, &amp;quot;SF Mono&amp;quot;, Menlo, Consolas, &amp;quot;Liberation Mono&amp;quot;, monospace; font-size: 16px; text-align: start; white-space-collapse: preserve; background-color: rgb(40, 44, 52);&quot;&gt;sudo systemctl daemon-reload&lt;/span&gt;" style="rounded=0;whiteSpace=wrap;html=1;" vertex="1" parent="1">
          <mxGeometry x="220" y="830" width="220" height="60" as="geometry" />
        </mxCell>
        <mxCell id="Z-S8mM7DxkfgQYMTvlX1-13" value="&lt;span style=&quot;color: rgb(171, 178, 191); font-family: ui-monospace, SFMono-Regular, &amp;quot;SF Mono&amp;quot;, Menlo, Consolas, &amp;quot;Liberation Mono&amp;quot;, monospace; font-size: 16px; text-align: start; white-space-collapse: preserve; background-color: rgb(40, 44, 52);&quot;&gt;sudo systemctl start mysql&lt;/span&gt;" style="rounded=0;whiteSpace=wrap;html=1;" vertex="1" parent="1">
          <mxGeometry x="220" y="970" width="220" height="60" as="geometry" />
        </mxCell>
      </root>
    </mxGraphModel>
  </diagram>
</mxfile>
